<?xml version="1.0" encoding="utf-8"?>
<!-- Generator: Adobe Illustrator 21.0.2, SVG Export Plug-In . SVG Version: 6.00 Build 0)  -->
<svg version="1.1" id="Слой_1" xmlns="http://www.w3.org/2000/svg" xmlns:xlink="http://www.w3.org/1999/xlink" x="0px" y="0px"
	 viewBox="0 0 44.7 44.7" style="enable-background:new 0 0 44.7 44.7;" xml:space="preserve">
<style type="text/css">
	.st0{fill:#FFFFFF;}
</style>
<g>
	<path class="st0" d="M42.3,31.1c-3,0-6-0.5-9-1.5c-0.7-0.2-1.7,0-2.5,0.5l-5.5,5.5c-7-3.5-12.7-9.5-16.4-16.4l5.5-5.5
		c0.7-0.7,1-1.7,0.5-2.5c-0.8-2.7-1.3-5.7-1.3-8.7c0-1.5-1-2.5-2.5-2.5H2.5C1,0,0,1,0,2.5c0,23.4,18.9,42.2,42.3,42.2
		c1.5,0,2.5-1,2.5-2.5v-8.7C44.7,32.1,43.7,31.1,42.3,31.1"/>
</g>
</svg>
