<?xml version="1.0" encoding="utf-8"?>
<!-- Generator: Adobe Illustrator 21.0.2, SVG Export Plug-In . SVG Version: 6.00 Build 0)  -->
<svg version="1.1" id="Слой_1" xmlns="http://www.w3.org/2000/svg" xmlns:xlink="http://www.w3.org/1999/xlink" x="0px" y="0px"
	 viewBox="0 0 11 11.3" style="enable-background:new 0 0 11 11.3;" xml:space="preserve">
	<path fill="#5F749D" d="M11,5.6c0,3-2.5,5.5-5.5,5.5c-3,0-5.5-2.5-5.5-5.5c0-3,2.5-5.5,5.5-5.5C8.5,0.1,11,2.6,11,5.6"/>
	<path fill="#FFFFFF" d="M5.3,8h0.4c0,0,0.1,0,0.2-0.1C6,7.9,6,7.8,6,7.8s0-0.6,0.3-0.7c0.3-0.1,0.6,0.6,1,0.8C7.5,8.1,7.7,8,7.7,8l1,0
		c0,0,0.5,0,0.3-0.4c0,0-0.1-0.3-0.7-0.8C7.6,6.2,7.7,6.3,8.4,5.3C8.8,4.7,9,4.4,9,4.2C8.9,4.1,8.6,4.1,8.6,4.1l-1.1,0
		c0,0-0.1,0-0.1,0c-0.1,0-0.1,0.1-0.1,0.1S7.1,4.7,6.9,5.1C6.4,5.9,6.2,6,6.1,5.9C5.9,5.8,6,5.4,6,5.2C6,4.4,6.1,4.1,5.7,4
		c-0.1,0-0.2,0-0.5-0.1c-0.4,0-0.7,0-0.9,0.1C4.2,4.1,4.1,4.2,4.2,4.2c0.1,0,0.2,0,0.3,0.2c0.1,0.2,0.1,0.5,0.1,0.5s0.1,0.9-0.1,1
		C4.3,6,4.1,5.8,3.7,5.1C3.4,4.7,3.3,4.3,3.3,4.3s0-0.1-0.1-0.1C3.1,4.1,3,4.1,3,4.1l-1,0c0,0-0.2,0-0.2,0.1c0,0.1,0,0.2,0,0.2
		s0.8,1.9,1.7,2.8C4.3,8.1,5.3,8,5.3,8"/>
</svg>
