<?xml version="1.0" encoding="utf-8"?>
<!-- Generator: Adobe Illustrator 21.0.2, SVG Export Plug-In . SVG Version: 6.00 Build 0)  -->
<svg version="1.1" id="Слой_1" xmlns="http://www.w3.org/2000/svg" xmlns:xlink="http://www.w3.org/1999/xlink" x="0px" y="0px"
	 viewBox="0 0 11.1 11.1" style="enable-background:new 0 0 11.1 11.1;" xml:space="preserve">
	<path fill="#C40009" d="M11.1,5.5c0,3.1-2.5,5.5-5.5,5.5C2.5,11.1,0,8.6,0,5.5C0,2.5,2.5,0,5.5,0C8.6,0,11.1,2.5,11.1,5.5"/>
	<path fill="#FFFFFF" d="M8.1,6.8c0-0.2-0.1-0.3-0.2-0.3c-0.1,0-0.2,0.1-0.2,0.3V7h0.4V6.8z M6.4,6.4c-0.1,0-0.1,0-0.2,0.1v1.4
		C6.2,8,6.3,8,6.4,8c0.1,0,0.2-0.1,0.2-0.3v-1C6.5,6.5,6.5,6.4,6.4,6.4 M3.6,2c0.1,0.4,0.2,0.7,0.3,1v1.2h0.5V2.9l0.5-1.8H4.5
		L4.2,2.3L3.8,1.1H3.4l0.1,0.4C3.5,1.6,3.6,1.7,3.6,2 M6.8,4.2c0.1,0,0.3-0.1,0.5-0.3v0.2h0.4V1.9H7.2v1.7C7.1,3.8,7.1,3.8,7,3.8
		c-0.1,0-0.1,0-0.1-0.1c0,0,0-0.1,0-0.2V1.9H6.5v1.8c0,0.2,0,0.3,0,0.3C6.6,4.1,6.6,4.2,6.8,4.2 M8.9,5.3c0-0.2-0.1-0.3-0.3-0.4
		C8.5,4.7,8.3,4.7,8.1,4.7C7.6,4.6,6.7,4.6,5.6,4.6c-1.1,0-1.9,0-2.5,0.1c-0.2,0-0.3,0.1-0.5,0.2C2.5,5,2.4,5.1,2.4,5.3
		C2.3,5.7,2.3,6.2,2.3,6.9c0,0.7,0,1.2,0.1,1.6c0,0.2,0.1,0.3,0.3,0.4C2.8,9,2.9,9.1,3.1,9.1c0.6,0.1,1.4,0.1,2.5,0.1
		c1.1,0,2,0,2.5-0.1c0.2,0,0.3-0.1,0.5-0.2c0.1-0.1,0.2-0.3,0.3-0.4C8.9,8.1,9,7.6,9,6.9C9,6.2,8.9,5.6,8.9,5.3 M4.2,5.8H3.7v2.6
		H3.3V5.8H2.8V5.3h1.4V5.8z M5.4,8.3H5V8.1C4.8,8.3,4.7,8.4,4.5,8.4c-0.1,0-0.2-0.1-0.3-0.2c0-0.1,0-0.2,0-0.3V6.1h0.4v1.6
		c0,0.1,0,0.2,0,0.2C4.7,8,4.7,8,4.7,8C4.8,8,4.9,7.9,5,7.8V6.1h0.4V8.3z M6.9,7.7c0,0.2,0,0.4,0,0.4c0,0.2-0.2,0.3-0.3,0.3
		c-0.1,0-0.3-0.1-0.4-0.2v0.2H5.8v-3h0.4v1c0.1-0.2,0.3-0.2,0.4-0.2c0.2,0,0.3,0.1,0.3,0.3c0,0.1,0,0.2,0,0.5V7.7z M8.5,7.6
		c0,0.1,0,0.2,0,0.3c0,0.1,0,0.2-0.1,0.2C8.3,8.3,8.1,8.4,7.9,8.4c-0.2,0-0.4-0.1-0.5-0.2C7.3,8,7.3,7.9,7.3,7.6V6.8
		c0-0.2,0-0.4,0.1-0.5c0.1-0.2,0.3-0.2,0.5-0.2c0.2,0,0.4,0.1,0.5,0.2c0.1,0.1,0.1,0.3,0.1,0.5v0.5H7.7v0.4C7.7,7.9,7.7,8,7.9,8
		C8,8,8,8,8.1,7.8c0,0,0,0,0,0c0,0,0-0.1,0-0.1V7.6L8.5,7.6L8.5,7.6z M5.5,4.2C5.7,4.2,5.9,4.1,6,4c0.1-0.1,0.1-0.3,0.1-0.5V2.6
		c0-0.2,0-0.4-0.1-0.5C5.9,2,5.7,1.9,5.5,1.9C5.3,1.9,5.2,2,5.1,2.1C5,2.2,4.9,2.4,4.9,2.6v0.8c0,0.2,0,0.4,0.1,0.5
		C5.2,4.1,5.3,4.2,5.5,4.2 M5.3,2.6c0-0.2,0.1-0.3,0.2-0.3c0.1,0,0.2,0.1,0.2,0.3v0.9c0,0.2-0.1,0.3-0.2,0.3c-0.1,0-0.2-0.1-0.2-0.3
		V2.6z"/>
</svg>
