<?xml version="1.0" encoding="utf-8"?>
<!-- Generator: Adobe Illustrator 21.0.2, SVG Export Plug-In . SVG Version: 6.00 Build 0)  -->
<svg version="1.1" id="Слой_1" xmlns="http://www.w3.org/2000/svg" xmlns:xlink="http://www.w3.org/1999/xlink" x="0px" y="0px"
	 viewBox="0 0 509.1 280.7" style="enable-background:new 0 0 509.1 280.7;" xml:space="preserve">
<style type="text/css">
	.st0{fill:#FFFFFF;}
</style>
<path class="st0" d="M16.2,193.6l8,22.3h-16L16.2,193.6z M13.2,190.6L0,226.8h4.4l2.9-7.5h18.3l2.7,7.5h4.3l-13.5-36.3H13.2z"/>
<g>
	<path class="st0" d="M65.4,226.8h-4v-32.6H43.8v22c0,3.6-0.5,6.2-1.6,8c-1,1.7-2.8,2.6-5.3,2.6h-2.6v-3.6h1c1.1,0,2-0.2,2.6-0.5
		c0.6-0.3,1.1-0.9,1.4-1.9c0.3-0.9,0.4-2.3,0.4-4.2v-26h25.6V226.8z"/>
	<polygon class="st0" points="76.3,206.5 94.7,206.5 94.7,210.1 76.3,210.1 76.3,223.2 95.5,223.2 95.5,226.8 72.3,226.8 
		72.3,190.6 95.6,190.6 95.6,194.2 76.3,194.2 	"/>
	<polygon class="st0" points="105.3,190.6 105.3,206.4 108.9,206.4 123.7,190.6 129.1,190.6 112.4,208.1 131,226.8 125.5,226.8 
		108.9,210 105.3,210 105.3,226.8 101.3,226.8 101.3,190.6 	"/>
	<path class="st0" d="M158.5,214.7h3.9c0,3.2-0.4,5.7-1.2,7.5c-0.8,1.8-2.3,3.1-4.3,3.8c-2.1,0.8-5,1.2-8.8,1.2
		c-2.9,0-5.2-0.3-7-0.8c-1.8-0.5-3.2-1.4-4.3-2.7c-1.1-1.3-1.9-3.1-2.4-5.5c-0.5-2.4-0.7-5.5-0.7-9.4c0-3.9,0.2-7,0.7-9.4
		c0.5-2.4,1.3-4.3,2.4-5.6c1.1-1.3,2.6-2.3,4.4-2.8c1.8-0.5,4.1-0.8,7-0.8c2.9,0,5.2,0.2,7,0.7c1.8,0.5,3.2,1.2,4.1,2.1
		c1,1,1.6,2.2,2,3.6c0.4,1.4,0.7,3.3,0.8,5.5l-3.9,0c-0.3-2.4-0.6-4.1-1.1-5.2c-0.5-1.1-1.4-1.9-2.7-2.4s-3.4-0.7-6.2-0.7
		c-2.1,0-3.9,0.2-5.2,0.6c-1.3,0.4-2.3,1.2-3.1,2.2c-0.8,1.1-1.3,2.6-1.6,4.5c-0.3,1.9-0.5,4.5-0.5,7.7c0,3.2,0.2,5.8,0.5,7.7
		c0.3,1.9,0.9,3.4,1.6,4.4c0.8,1.1,1.8,1.8,3.1,2.2c1.3,0.4,3,0.6,5.2,0.6c2.2,0,4-0.1,5.3-0.4c1.3-0.3,2.4-0.7,3.1-1.4
		c0.7-0.7,1.3-1.5,1.6-2.7C158.4,218.1,158.5,216.6,158.5,214.7"/>
	<path class="st0" d="M164.9,226.8l13.2-36.3h5.9l13.5,36.3h-4.3l-2.7-7.5h-18.3l-2.9,7.5H164.9z M189.2,215.9l-8-22.3l-8,22.3
		H189.2z"/>
	<polygon class="st0" points="206,206.6 227.2,206.6 227.2,190.6 231.2,190.6 231.2,226.8 227.2,226.8 227.2,210.1 206,210.1 
		206,226.8 202,226.8 202,190.6 206,190.6 	"/>
	<path class="st0" d="M238.5,223.3c0.9-1.4,1.6-2.8,2.2-4.2c0.5-1.4,0.9-3,1.2-4.6c0.2-1.6,0.3-3.3,0.3-5.2v-18.7h24.6v32.7h2.6
		v11.9h-3.7v-8.3H240v8.3h-3.7v-11.9H238.5z M262.9,194.2h-16.7v14.5c0,1.9-0.1,3.5-0.2,4.9c-0.1,1.4-0.3,2.6-0.5,3.7
		c-0.2,1.1-0.6,2.1-1,3.1c-0.4,1-0.9,1.9-1.4,2.9h19.7V194.2z"/>
	<path class="st0" d="M278.2,212.7v14.2h-4v-36.3h17.3c2.2,0,4,0.4,5.4,1.1c1.4,0.7,2.5,1.9,3.2,3.4c0.7,1.5,1.1,3.5,1.1,5.9
		c0,2.9-0.4,5.2-1.2,6.9c-0.8,1.7-2.1,2.9-3.8,3.6c-1.8,0.7-4.1,1.1-7.1,1.1H278.2z M278.2,209.1h9.6c2.4,0,4.2-0.2,5.4-0.5
		c1.3-0.3,2.2-1,2.8-2.1c0.6-1,0.9-2.6,0.9-4.8c0-2.8-0.4-4.8-1.3-5.9c-0.9-1.1-2.5-1.7-4.8-1.7h-12.7V209.1z"/>
	<path class="st0" d="M305.8,199.2c0.5-2.4,1.2-4.2,2.4-5.5c1.1-1.3,2.6-2.2,4.5-2.7c1.9-0.5,4.5-0.8,7.7-0.8c3.2,0,5.7,0.3,7.6,0.8
		c1.9,0.5,3.4,1.4,4.5,2.7c1.1,1.3,1.9,3.1,2.3,5.5s0.7,5.6,0.7,9.5c0,4-0.2,7.1-0.7,9.5c-0.5,2.4-1.2,4.2-2.3,5.5
		c-1.1,1.3-2.6,2.2-4.5,2.7c-1.9,0.5-4.5,0.8-7.7,0.8c-3.2,0-5.7-0.3-7.6-0.8c-1.9-0.5-3.4-1.4-4.5-2.7c-1.1-1.3-1.9-3.1-2.4-5.5
		c-0.5-2.4-0.7-5.5-0.7-9.5C305.1,204.7,305.3,201.6,305.8,199.2 M309.6,216.7c0.3,1.9,0.8,3.3,1.5,4.3c0.7,1,1.8,1.7,3.3,2.1
		c1.4,0.4,3.4,0.6,6,0.6c2.6,0,4.6-0.2,6-0.6c1.4-0.4,2.5-1.1,3.2-2.1c0.7-1,1.2-2.5,1.5-4.3c0.3-1.8,0.4-4.5,0.4-8
		c0-3.5-0.1-6.2-0.4-8c-0.2-1.9-0.7-3.3-1.5-4.3c-0.7-1-1.8-1.7-3.2-2.1c-1.4-0.4-3.4-0.6-6.1-0.6c-2.6,0-4.7,0.2-6.1,0.6
		c-1.4,0.4-2.5,1.1-3.2,2.1c-0.7,1-1.2,2.5-1.5,4.3c-0.2,1.9-0.4,4.5-0.4,8C309.2,212.2,309.3,214.8,309.6,216.7"/>
	<path class="st0" d="M359.4,226.8h-18.5v-36.3h17.5c3.2,0,5.5,0.7,7,2.1c1.5,1.4,2.2,3.7,2.2,6.9c0,1.5-0.1,2.8-0.3,3.8
		c-0.2,1-0.6,1.9-1.3,2.6c-0.7,0.8-1.6,1.4-3,1.8c1.6,0.4,2.7,1,3.6,1.7c0.8,0.7,1.4,1.6,1.6,2.7c0.3,1.1,0.4,2.5,0.4,4.2
		c0,3.4-0.7,6-2.1,7.8C365.1,226,362.7,226.8,359.4,226.8 M344.9,194.2v12.2h11.5c1.8,0,3.2-0.2,4.2-0.6c1-0.4,1.7-1,2.2-2
		c0.4-0.9,0.7-2.3,0.7-4c0-2.2-0.4-3.7-1.2-4.5c-0.8-0.8-2.3-1.2-4.4-1.2H344.9z M344.9,209.9v13.3h11.2c1.7,0,3.1-0.1,4.1-0.2
		c1-0.1,1.8-0.4,2.5-0.9c0.7-0.4,1.1-1.1,1.4-2c0.3-0.9,0.4-2,0.4-3.5c0-2-0.2-3.4-0.6-4.4c-0.4-0.9-1-1.6-2-1.9
		c-0.9-0.3-2.3-0.5-4.2-0.5H344.9z"/>
	<path class="st0" d="M397.9,214.7h3.9c0,3.2-0.4,5.7-1.2,7.5c-0.8,1.8-2.3,3.1-4.3,3.8c-2.1,0.8-5,1.2-8.8,1.2
		c-2.9,0-5.2-0.3-7-0.8c-1.8-0.5-3.2-1.4-4.3-2.7c-1.1-1.3-1.9-3.1-2.4-5.5c-0.5-2.4-0.7-5.5-0.7-9.4c0-3.9,0.2-7,0.7-9.4
		c0.5-2.4,1.3-4.3,2.4-5.6c1.1-1.3,2.6-2.3,4.4-2.8c1.8-0.5,4.1-0.8,7-0.8c2.9,0,5.2,0.2,7,0.7c1.8,0.5,3.2,1.2,4.1,2.1
		c1,1,1.6,2.2,2,3.6c0.4,1.4,0.7,3.3,0.8,5.5l-3.9,0c-0.3-2.4-0.6-4.1-1.1-5.2c-0.5-1.1-1.4-1.9-2.7-2.4c-1.3-0.5-3.4-0.7-6.2-0.7
		c-2.1,0-3.9,0.2-5.2,0.6c-1.3,0.4-2.3,1.2-3.1,2.2c-0.8,1.1-1.3,2.6-1.6,4.5c-0.3,1.9-0.5,4.5-0.5,7.7c0,3.2,0.2,5.8,0.5,7.7
		c0.3,1.9,0.9,3.4,1.6,4.4c0.8,1.1,1.8,1.8,3.1,2.2c1.3,0.4,3,0.6,5.2,0.6c2.2,0,4-0.1,5.3-0.4c1.3-0.3,2.4-0.7,3.1-1.4
		c0.7-0.7,1.3-1.5,1.6-2.7C397.7,218.1,397.9,216.6,397.9,214.7"/>
	<polygon class="st0" points="410.6,190.6 410.6,206.4 414.2,206.4 429,190.6 434.4,190.6 417.7,208.1 436.3,226.8 430.8,226.8 
		414.2,210 410.6,210 410.6,226.8 406.6,226.8 406.6,190.6 	"/>
	<polygon class="st0" points="440.2,190.6 444.2,190.6 444.2,224.1 464.8,190.6 471.3,190.6 471.3,226.8 467.3,226.8 467.3,193.7 
		446.6,226.8 440.2,226.8 	"/>
	<path class="st0" d="M478.1,190.6h4V224l20.6-33.4h6.4v36.3h-4v-33.2l-20.7,33.2h-6.4V190.6z M497.7,184.1c0,0.9-0.2,1.5-0.6,1.9
		c-0.4,0.4-0.9,0.6-1.5,0.7c-0.6,0.1-1.5,0.1-2.6,0.1c-1.1,0-2,0-2.6-0.1c-0.6-0.1-1.1-0.3-1.5-0.8c-0.4-0.4-0.6-1.1-0.6-1.9h-2.8
		c0,1.5,0.2,2.6,0.7,3.4c0.5,0.8,1.3,1.3,2.3,1.7c1.1,0.3,2.5,0.5,4.3,0.5c2,0,3.5-0.2,4.5-0.5c1.1-0.3,1.8-0.8,2.3-1.6
		c0.5-0.8,0.7-1.9,0.7-3.4H497.7z"/>
	<path class="st0" d="M138.6,280.5h-1.7l7.6-8.4l-7.1-7.9h1.7l7.1,7.9L138.6,280.5z M146.7,264.2h1.4v16.3h-1.4V264.2z M148.6,272.1
		l7.1-7.9h1.7l-7.1,7.9l7.6,8.4h-1.7L148.6,272.1z"/>
	<polygon class="st0" points="161.9,280.5 161.9,264.2 163.3,264.2 163.3,278.2 172.7,264.2 174,264.2 174,280.5 172.6,280.5 
		172.6,266.6 163.2,280.5 	"/>
	<path class="st0" d="M192,280.5h-1.4v-15.1h-7.7v1c0,13.1-0.8,14.3-4.8,14.3h-0.2v-1.2h0.2c2.5,0,3.4-0.6,3.4-13.1v-2.2H192V280.5z
		"/>
	<path class="st0" d="M203.7,280.7c-3.5,0-6.1-1.8-6.1-4.3v-8c0-2.5,2.5-4.3,6.1-4.3c3.5,0,6,1.8,6,4.3v8
		C209.7,278.9,207.2,280.7,203.7,280.7 M208.3,268.3c0-1.8-1.9-3.1-4.6-3.1s-4.6,1.3-4.6,3.1v8.1c0,1.8,1.9,3.1,4.6,3.1
		s4.6-1.3,4.6-3.1V268.3z"/>
	<path class="st0" d="M215.3,280.5v-16.3h1.4v13.9l9.4-13.9h1.3v16.3h-1.4v-13.9l-9.4,13.9H215.3z M225.1,260v0.4
		c0,1.3-1.5,2.3-3.5,2.3c-2.1,0-3.5-1-3.5-2.3V260h1.1v0.5c0,0.7,1,1.3,2.4,1.3c1.4,0,2.4-0.6,2.4-1.3V260H225.1z"/>
	<path class="st0" d="M240.2,264.2h1.4v16.3h-1.4V264.2z M242.3,272.1l7.4-7.9h1.7l-7.4,7.9l7.9,8.4h-1.7L242.3,272.1z"/>
	<path class="st0" d="M261.3,280.7c-3.5,0-6.1-1.8-6.1-4.3v-8c0-2.5,2.5-4.3,6.1-4.3c3.5,0,6,1.8,6,4.3v8
		C267.4,278.9,264.9,280.7,261.3,280.7 M266,268.3c0-1.8-1.9-3.1-4.6-3.1c-2.7,0-4.6,1.3-4.6,3.1v8.1c0,1.8,1.9,3.1,4.6,3.1
		c2.7,0,4.6-1.3,4.6-3.1V268.3z"/>
	<polygon class="st0" points="273,280.5 273,264.2 274.2,264.2 280.3,275.4 286.5,264.2 287.8,264.2 287.8,280.5 286.4,280.5 
		286.4,267.1 280.8,277.4 279.9,277.4 274.4,267.1 274.4,280.5 	"/>
	<polygon class="st0" points="293.6,280.5 293.6,264.2 305.7,264.2 305.7,280.5 304.3,280.5 304.3,265.4 295,265.4 295,280.5 	"/>
	<path class="st0" d="M323.7,280.5h-1.4v-15.1h-7.7v1c0,13.1-0.8,14.3-4.8,14.3h-0.2v-1.2h0.2c2.5,0,3.4-0.6,3.4-13.1v-2.2h10.5
		V280.5z"/>
	<polygon class="st0" points="339.6,280.5 329.6,280.5 329.6,264.2 339.6,264.2 339.6,265.4 331,265.4 331,271.8 338.8,271.8 
		338.8,273 331,273 331,279.3 339.6,279.3 	"/>
	<path class="st0" d="M344.4,264.2h1.4v16.3h-1.4V264.2z M346.5,272.1l7.4-7.9h1.7l-7.4,7.9l7.9,8.4h-1.7L346.5,272.1z"/>
	<path class="st0" d="M371.6,275.6v0.7c0,2.5-2.5,4.3-6,4.3c-3.5,0-6.1-1.8-6.1-4.3v-8c0-2.5,2.5-4.3,6.1-4.3c3.5,0,6,1.8,6,4.3v0.8
		h-1.4v-0.8c0-1.8-1.9-3.1-4.6-3.1s-4.6,1.3-4.6,3.1v8.1c0,1.8,1.9,3.1,4.6,3.1s4.6-1.3,4.6-3.1v-0.8H371.6z"/>
	<path class="st0" d="M244.2,250.1H3.3c-0.8,0-1.4-0.6-1.4-1.4c0-0.8,0.6-1.4,1.4-1.4h240.8c0.8,0,1.4,0.6,1.4,1.4
		C245.6,249.4,245,250.1,244.2,250.1"/>
	<path class="st0" d="M507.6,250.1H266.8c-0.8,0-1.4-0.6-1.4-1.4c0-0.8,0.6-1.4,1.4-1.4h240.8c0.8,0,1.4,0.6,1.4,1.4
		C509.1,249.4,508.4,250.1,507.6,250.1"/>
	
		<rect x="251" y="243.8" transform="matrix(0.7071 -0.7071 0.7071 0.7071 -100.8975 253.7345)" class="st0" width="9.7" height="9.7"/>
	<path class="st0" d="M202.5,156h2l15.5-31.7h-2L202.5,156z M283,124.2l15.5,31.7h2l-15.5-31.7H283z M294.6,124.2l15.5,31.7h4.1
		l-15.5-31.7H294.6z M251.5,0l-54.6,111.7h6.1l0,0h85.4l2.2,4.5l-82.2-0.1L188.9,156h4.1l17.7-36.1h81.8l0,0.1h4.1l-4-8.2h7.5
		l21.6,44.3h6.1L251.5,0z M289.9,106.2l-38.3-78.4l-36.2,74h4.1l32.1-65.6l34.2,70h-9.5l-24.7-50.6L229,101.8h2.2v0h35.3l-0.8-1.8
		h-33.8l19.6-40.1l22.7,46.4h-68.4l45.8-93.6l45.8,93.6H289.9z M194.8,116.1L175.3,156h6.1l19.5-39.9H194.8z"/>
</g>
</svg>
