<?xml version="1.0" standalone="no"?>
<!DOCTYPE svg PUBLIC "-//W3C//DTD SVG 1.1//EN" "http://www.w3.org/Graphics/SVG/1.1/DTD/svg11.dtd" >
<svg>
<metadata>
Created by FontForge 20090622 at Thu Apr 18 19:13:08 2019
 By deploy user
Copyright (c) 1990-1996 ParaGraph. All Rights Reserved. Friz Quadrata is a registered trade mark of International Typeface Corporation.
</metadata>
<defs>
<font id="FrizQuadrataC" horiz-adv-x="640" >
  <font-face 
    font-family="FrizQuadrataC"
    font-weight="400"
    font-stretch="normal"
    units-per-em="1000"
    panose-1="4 0 5 0 0 0 0 0 0 0"
    ascent="730"
    descent="-270"
    x-height="485"
    cap-height="700"
    bbox="-488 -270 1122 917"
    underline-thickness="50"
    underline-position="-50"
    unicode-range="U+0020-U+2122"
  />
<missing-glyph horiz-adv-x="233" 
 />
    <glyph glyph-name=".notdef" horiz-adv-x="233" 
 />
    <glyph glyph-name=".null" horiz-adv-x="0" 
 />
    <glyph glyph-name="nonmarkingreturn" horiz-adv-x="333" 
 />
    <glyph glyph-name="space" unicode=" " horiz-adv-x="233" 
 />
    <glyph glyph-name="space" unicode="&#xa0;" horiz-adv-x="233" 
 />
    <glyph glyph-name="exclam" unicode="!" horiz-adv-x="238" 
d="M90 173l-20 451q0 14 -1 22t-4.5 19t-10.5 19.5t-19 15.5h137q10 0 13 -3t3 -13q0 -6 -0.5 -12.5t-2 -22.5t-2.5 -41l-20 -435h-73zM61 51q0 27 19.5 46.5t46.5 19.5t46.5 -19.5t19.5 -46.5t-19.5 -46.5t-46.5 -19.5t-46.5 19.5t-19.5 46.5z" />
    <glyph glyph-name="quotedbl" unicode="&#x22;" horiz-adv-x="364" 
d="M72 427l-27 294h92l-27 -294h-38zM254 427l-27 294h92l-27 -294h-38z" />
    <glyph glyph-name="numbersign" unicode="#" horiz-adv-x="676" 
d="M434 32h-67l37 181h-202l-36 -181h-68l37 181h-115l11 56h115l41 201h-119l11 56h119l41 204h67l-41 -204h202l41 204h67l-41 -204h122l-12 -56h-121l-41 -201h126l-12 -56h-125zM415 269l41 201h-202l-41 -201h202z" />
    <glyph glyph-name="dollar" unicode="$" horiz-adv-x="522" 
d="M230 803h60v-88q74 -1 139 -26v-117q-51 56 -139 63v-205q101 -41 159 -93t58 -136q0 -93 -64 -150.5t-153 -64.5v-97h-60v96q-108 1 -197 18v129q91 -76 197 -72v275q-114 43 -159.5 91.5t-45.5 108.5q0 59 33 101.5t78 60.5t94 18v88zM230 451v184q-39 1 -73 -19.5
t-34 -60.5q0 -36 26 -58.5t81 -45.5zM290 308v-242q54 7 85.5 42.5t31.5 77.5q0 78 -117 122z" />
    <glyph glyph-name="percent" unicode="%" horiz-adv-x="694" 
d="M477 700h60l-327 -700h-60zM188 700q71 0 110 -48t39 -116q0 -64 -38 -112.5t-109 -48.5q-68 0 -109 44t-41 115q0 74 41 120t107 46zM187 645q-67 0 -67 -110q0 -44 16.5 -74.5t53.5 -30.5t52 31.5t15 72.5q0 44 -15.5 77.5t-54.5 33.5zM505 325q71 0 110 -48t39 -116
q0 -64 -38 -112.5t-109 -48.5q-68 0 -109 44t-41 115q0 74 41 120t107 46zM504 270q-67 0 -67 -110q0 -44 16.5 -74.5t53.5 -30.5t52 31.5t15 72.5q0 44 -15.5 77.5t-54.5 33.5z" />
    <glyph glyph-name="ampersand" unicode="&#x26;" horiz-adv-x="571" 
d="M293 415l131 -128q226 -221 387 -287l-130 -4q-89 -3 -212 113q-50 -71 -101 -97.5t-119 -26.5q-106 0 -175.5 54t-69.5 149q0 61 32.5 118t117.5 117q-86 79 -86 147q0 59 42.5 102t124.5 43q77 0 118.5 -41t41.5 -99q0 -75 -102 -160zM233 478q70 44 70 102
q0 32 -20 51.5t-53 19.5q-31 0 -50.5 -17t-19.5 -46q0 -56 73 -110zM426 148l-211 208q-100 -66 -100 -154q0 -64 40 -103t105 -39q46 0 85.5 18t80.5 70z" />
    <glyph glyph-name="quotesingle" unicode="'" horiz-adv-x="182" 
d="M72 427l-27 294h92l-27 -294h-38z" />
    <glyph glyph-name="parenleft" unicode="(" horiz-adv-x="317" 
d="M258 715h69q-147 -228 -147 -487q0 -255 147 -486h-69q-79 105 -128.5 233.5t-49.5 252.5t49.5 253t128.5 234z" />
    <glyph glyph-name="parenright" unicode=")" horiz-adv-x="317" 
d="M-10 715h69q79 -105 128.5 -234t49.5 -253t-49.5 -252.5t-128.5 -233.5h-69q147 231 147 486q0 259 -147 487z" />
    <glyph glyph-name="asterisk" unicode="*" horiz-adv-x="300" 
d="M150 477q-14 0 -22 9t-8 23q0 16 9 34l8 16q8 15 4 24q-10 -1 -19 -15l-10 -15q-21 -31 -42 -31q-12 0 -20.5 8.5t-8.5 23.5q0 32 50 35l18 1q18 2 23 9q-5 7 -23 9l-18 1q-19 1 -30.5 6t-15.5 13t-4.5 11t-0.5 10q0 10 9.5 18t20.5 8q22 0 42 -30l10 -15q11 -16 19 -15
q4 6 -4 24l-8 16q-10 18 -10 34q0 14 8.5 23t22.5 9t22.5 -9t8.5 -23q0 -16 -10 -34l-8 -16q-8 -18 -4 -24q8 -1 19 15l10 15q20 30 42 30q11 0 20.5 -8t9.5 -18v-7t-2.5 -9.5t-7 -11t-15.5 -7.5t-26 -5l-18 -1q-18 -2 -23 -9q5 -7 23 -9l18 -1q50 -3 50 -35
q0 -15 -8.5 -23.5t-20.5 -8.5q-21 0 -42 31l-10 15q-9 14 -19 15q-4 -9 4 -24l8 -16q9 -18 9 -34q0 -14 -8 -23t-22 -9z" />
    <glyph glyph-name="plus" unicode="+" 
d="M347 68h-54v255h-255v54h255v255h54v-255h255v-54h-255v-255z" />
    <glyph glyph-name="comma" unicode="," horiz-adv-x="223" 
d="M92 -110h-52q21 21 45.5 54.5t24.5 48.5q0 7 -7 9q-54 11 -54 62q0 28 18.5 44.5t46.5 16.5q32 0 50.5 -21t18.5 -54q0 -45 -28 -87.5t-63 -72.5z" />
    <glyph glyph-name="hyphen" unicode="-" horiz-adv-x="425" 
d="M40 225l58 80q8 11 24 11h263l-58 -80q-8 -11 -24 -11h-263z" />
    <glyph glyph-name="hyphen" unicode="&#xad;" horiz-adv-x="425" 
d="M40 225l58 80q8 11 24 11h263l-58 -80q-8 -11 -24 -11h-263z" />
    <glyph glyph-name="period" unicode="." horiz-adv-x="212" 
d="M40 51q0 27 19.5 46.5t46.5 19.5t46.5 -19.5t19.5 -46.5t-19.5 -46.5t-46.5 -19.5t-46.5 19.5t-19.5 46.5z" />
    <glyph glyph-name="slash" unicode="/" horiz-adv-x="382" 
d="M313 715h64l-323 -851h-64z" />
    <glyph glyph-name="zero" unicode="0" 
d="M323 715q73 0 129 -33t88.5 -88t49 -118.5t16.5 -132.5q0 -158 -79.5 -258t-209.5 -100q-73 0 -129 33t-88.5 88t-49 118.5t-16.5 132.5q0 158 79.5 258t209.5 100zM318 67q77 0 125 70.5t48 190.5q0 133 -44.5 219t-123.5 86q-70 0 -122 -64t-52 -197q0 -134 45 -219.5
t124 -85.5z" />
    <glyph glyph-name="one" unicode="1" 
d="M390 743v-643q0 -20 1.5 -32.5t12.5 -32.5t32 -35h-194q21 15 32 35t12.5 32.5t1.5 32.5v457h-123q159 64 225 186z" />
    <glyph glyph-name="two" unicode="2" 
d="M98 568l59 125q70 22 147 22q99 0 152.5 -48t53.5 -116q0 -71 -56 -153l-215 -313q88 -9 137 -9q128 0 220 47l-57 -123h-475l287 422q1 1 11 15.5t13 20t9.5 18.5t8.5 24.5t2 24.5q0 49 -32 77.5t-87 28.5q-82 0 -178 -63z" />
    <glyph glyph-name="three" unicode="3" 
d="M118 588l47 110q60 17 127 17q124 0 180.5 -51.5t56.5 -119.5q0 -62 -43 -100t-96 -50v-4q75 -5 125.5 -56.5t50.5 -124.5q0 -101 -85.5 -162.5t-236.5 -61.5q-67 0 -138 15l-47 126q113 -59 200 -59q54 0 94.5 15t60 38t28.5 45t9 43q0 19 -5.5 38.5t-21 44t-53 40
t-92.5 15.5q-45 0 -80 -10v90q51 -6 74 -6q78 0 109.5 35.5t31.5 77.5q0 41 -37.5 70.5t-103.5 29.5q-74 0 -155 -45z" />
    <glyph glyph-name="four" unicode="4" 
d="M337 700h143v-470q80 2 129 40l-49 -129h-80v-41q0 -20 1.5 -32.5t12.5 -32.5t32 -35h-194q21 15 32 35t12.5 32.5t1.5 32.5v41h-366zM378 619l-223 -387q83 -11 143 -11q44 0 80 4v394z" />
    <glyph glyph-name="five" unicode="5" 
d="M124 700h386v-124q-59 42 -163 42q-30 0 -128 -7l-9 -176q52 14 106 14q65 0 115.5 -18.5t80 -50t44.5 -68.5t15 -77q0 -104 -80.5 -177t-234.5 -73q-62 0 -138 16l-48 109q80 -43 180 -43q98 0 152 45.5t54 109.5q0 60 -47.5 102.5t-136.5 42.5q-90 0 -169 -36z" />
    <glyph glyph-name="six" unicode="6" 
d="M512 715l-47 -63q-138 -39 -223 -140t-85 -231q0 -98 49.5 -156t128.5 -58q62 0 105.5 36.5t43.5 114.5q0 71 -40 119t-119 48q-58 0 -120 -32l58 77q38 31 106 31q104 0 167 -61.5t63 -158.5q0 -64 -29 -120.5t-93.5 -96t-153.5 -39.5q-71 0 -126.5 27.5t-88 72
t-49.5 95.5t-17 103q0 163 134.5 285t335.5 147z" />
    <glyph glyph-name="seven" unicode="7" 
d="M119 700h454l-226 -543q-36 -88 -36 -114q0 -31 29 -43h-175l264 609q-68 15 -151 15q-134 0 -205 -54z" />
    <glyph glyph-name="eight" unicode="8" 
d="M196 370q-53 18 -93.5 60t-40.5 103q0 75 63 128.5t190 53.5q122 0 186 -49t64 -123q0 -61 -43 -100.5t-97 -57.5q89 -33 134 -76.5t45 -112.5q0 -93 -80 -152t-205 -59t-204 53t-79 146q0 125 160 186zM282 441l89 -31q96 61 96 124q0 49 -40.5 84.5t-119.5 35.5
q-63 0 -101 -27t-38 -69q0 -78 114 -117zM351 309l-88 28q-54 -19 -87 -57t-33 -85q0 -55 46 -99.5t127 -44.5q85 0 131.5 38t46.5 88q0 52 -37.5 81t-105.5 51z" />
    <glyph glyph-name="nine" unicode="9" 
d="M129 -15l47 63q138 39 223 140t85 231q0 98 -49.5 156t-128.5 58q-62 0 -105.5 -36.5t-43.5 -114.5q0 -71 40 -119t119 -48q58 0 120 32l-58 -77q-38 -31 -106 -31q-104 0 -167 61.5t-63 158.5q0 102 72 179t200 77q126 0 205.5 -85t79.5 -213q0 -163 -134.5 -285
t-335.5 -147z" />
    <glyph glyph-name="colon" unicode=":" horiz-adv-x="212" 
d="M40 331q0 27 19.5 46.5t46.5 19.5t46.5 -19.5t19.5 -46.5t-19.5 -46.5t-46.5 -19.5t-46.5 19.5t-19.5 46.5zM40 51q0 27 19.5 46.5t46.5 19.5t46.5 -19.5t19.5 -46.5t-19.5 -46.5t-46.5 -19.5t-46.5 19.5t-19.5 46.5z" />
    <glyph glyph-name="semicolon" unicode=";" horiz-adv-x="223" 
d="M51 331q0 27 19.5 46.5t46.5 19.5t46.5 -19.5t19.5 -46.5t-19.5 -46.5t-46.5 -19.5t-46.5 19.5t-19.5 46.5zM92 -110h-52q21 21 45.5 54.5t24.5 48.5q0 7 -7 9q-54 11 -54 62q0 28 18.5 44.5t46.5 16.5q32 0 50.5 -21t18.5 -54q0 -45 -28 -87.5t-63 -72.5z" />
    <glyph glyph-name="less" unicode="&#x3c;" 
d="M58 346l500 316l25 -40l-432 -276l432 -276l-25 -40z" />
    <glyph glyph-name="equal" unicode="=" 
d="M38 233v55h564v-55h-564zM38 412v55h564v-55h-564z" />
    <glyph glyph-name="greater" unicode="&#x3e;" 
d="M583 346l-500 -316l-25 40l433 276l-433 276l25 40z" />
    <glyph glyph-name="question" unicode="?" horiz-adv-x="399" 
d="M0 602l17 34q26 51 54 65t91 14q16 0 35.5 -1.5t58.5 -12t68 -28.5t52 -56t23 -89q0 -55 -25.5 -97t-78.5 -86l-31 -26q-24 -20 -36.5 -32t-26.5 -35t-14 -46q0 -19 8 -33h-86q-1 9 -1 26q0 39 13.5 70t28 46t41.5 36q32 26 50 42.5t36 48t18 65.5q0 60 -43 98t-112 38
q-63 0 -140 -41zM82 51q0 27 19.5 46.5t46.5 19.5t46.5 -19.5t19.5 -46.5t-19.5 -46.5t-46.5 -19.5t-46.5 19.5t-19.5 46.5z" />
    <glyph glyph-name="at" unicode="@" horiz-adv-x="820" 
d="M595 61l12 -38q-84 -37 -190 -37q-89 0 -160.5 30t-115.5 80t-67.5 111.5t-23.5 128.5q0 164 111.5 271t275.5 107q147 0 240 -91.5t93 -222.5q0 -72 -23.5 -125t-60.5 -79.5t-73 -38t-72 -11.5q-33 0 -50 16.5t-17 41.5q0 15 5 37l49 228q-29 21 -72 21q-70 0 -117 -53
t-47 -134q0 -56 26.5 -77.5t59.5 -21.5q41 0 81 21l-56 -71q-13 -11 -50 -11q-54 0 -94 37.5t-40 111.5q0 82 38 141t93 85.5t117 26.5q29 0 57 -5q37 -6 40 -6q7 0 22 5l29 9l-60 -285q-4 -18 -4 -29q0 -15 6 -23t12 -9.5t17 -1.5q70 0 106 58.5t36 141.5
q0 119 -79.5 196.5t-210.5 77.5q-141 0 -239 -94.5t-98 -239.5q0 -140 88.5 -227t237.5 -87q86 0 168 35z" />
    <glyph glyph-name="A" unicode="A" horiz-adv-x="658" 
d="M218 700h164l241 -597q30 -74 85 -103h-215q52 23 30 78l-76 188h-269l-63 -157q-29 -72 24 -109h-189q35 23 54 52.5t37 74.5l200 506q19 48 -23 67zM312 609l-108 -276h217z" />
    <glyph glyph-name="B" unicode="B" horiz-adv-x="592" 
d="M43 700l269 5q89 2 145 -41t56 -116q0 -59 -33 -93t-73 -49q76 -8 124 -59t48 -129q0 -30 -6.5 -57.5t-26.5 -57.5t-51 -52t-85 -36.5t-124 -14.5h-243q21 15 32 35t12.5 32.5t1.5 32.5v500q0 20 -1.5 32.5t-12.5 32.5t-32 35zM191 625v-204l55 -1q74 -1 113.5 32
t39.5 80q0 43 -32 71t-97 28q-33 0 -79 -6zM191 352v-269q61 -9 104 -9q54 0 90.5 14.5t52 38.5t21 43.5t5.5 40.5q0 56 -43 100.5t-147 44.5q-28 0 -83 -4z" />
    <glyph glyph-name="C" unicode="C" horiz-adv-x="667" 
d="M611 688v-122q-94 64 -198 64q-106 0 -184 -68.5t-78 -189.5q0 -57 17 -109t50 -96t89.5 -70.5t129.5 -26.5q146 0 235 74l-68 -134q-78 -25 -175 -25q-86 0 -155.5 23t-113 59t-72.5 84.5t-40.5 96.5t-11.5 97q0 98 43.5 181t133.5 136t212 53q55 0 130 -16
q30 -7 56 -11z" />
    <glyph glyph-name="D" unicode="D" horiz-adv-x="731" 
d="M89 100v500q0 20 -1.5 32.5t-12.5 32.5t-32 35q142 9 260 9q104 0 182 -29.5t122.5 -81t66 -113t21.5 -132.5q0 -157 -106.5 -255t-286.5 -98h-259q21 15 32 35t12.5 32.5t1.5 32.5zM191 619v-528q41 -9 91 -9q140 0 219 72t79 203q0 123 -78.5 196.5t-198.5 73.5
q-48 0 -112 -8z" />
    <glyph glyph-name="E" unicode="E" horiz-adv-x="515" 
d="M43 700h388v-115q-32 37 -105 36l-135 -3v-200h144q19 0 36 3v-109q-26 26 -76 26h-104v-251q71 -7 130 -7q79 0 126.5 15t82.5 46l-51 -141h-436q46 32 46 100v500q0 68 -46 100z" />
    <glyph glyph-name="F" unicode="F" horiz-adv-x="431" 
d="M43 700h352q19 0 36 3v-118q-32 37 -105 36l-135 -3v-200h144q19 0 36 3v-109q-26 26 -76 26h-104v-238q0 -68 51 -100h-199q46 32 46 100v500q0 68 -46 100z" />
    <glyph glyph-name="G" unicode="G" horiz-adv-x="744" 
d="M626 696v-120q-71 57 -185 57q-127 0 -208.5 -74t-81.5 -193q0 -128 86.5 -213.5t227.5 -85.5q64 0 126 19v181q0 59 -35 89h143q-6 -18 -6 -30v-259q0 -28 5 -46q-115 -36 -240 -36q-199 0 -310.5 105t-111.5 256q0 69 25 133.5t73.5 118t130 85.5t185.5 32
q51 0 102.5 -8.5t73.5 -10.5z" />
    <glyph glyph-name="H" unicode="H" horiz-adv-x="767" 
d="M191 424h385v176q0 22 -1.5 34.5t-12.5 31.5t-32 34h194q-21 -15 -32 -34t-12.5 -31.5t-1.5 -34.5v-500q0 -22 1.5 -34.5t12.5 -31.5t32 -34h-194q21 15 32 34t12.5 31.5t1.5 34.5v244h-385v-244q0 -22 1.5 -34.5t12.5 -31.5t32 -34h-194q21 15 32 34t12.5 31.5t1.5 34.5
v500q0 22 -1.5 34.5t-12.5 31.5t-32 34h194q-21 -15 -32 -34t-12.5 -31.5t-1.5 -34.5v-176z" />
    <glyph glyph-name="I" unicode="I" horiz-adv-x="280" 
d="M43 700h194q-21 -15 -32 -35t-12.5 -32.5t-1.5 -32.5v-500q0 -20 1.5 -32.5t12.5 -32.5t32 -35h-194q21 15 32 35t12.5 32.5t1.5 32.5v500q0 20 -1.5 32.5t-12.5 32.5t-32 35z" />
    <glyph glyph-name="J" unicode="J" horiz-adv-x="280" 
d="M39 700h201q-21 -15 -32 -35t-12.5 -32.5t-1.5 -32.5v-616v-9q0 -27 -0.5 -41.5t-6.5 -35.5t-17 -38q-27 -40 -89 -65.5t-116 -29.5q75 44 101 97.5t26 125.5v612q0 70 -53 100z" />
    <glyph glyph-name="K" unicode="K" horiz-adv-x="585" 
d="M43 700h194q-21 -15 -32 -35t-12.5 -32.5t-1.5 -32.5v-500q0 -20 1.5 -32.5t12.5 -32.5t32 -35h-194q21 15 32 35t12.5 32.5t1.5 32.5v500q0 20 -1.5 32.5t-12.5 32.5t-32 35zM211 363l156 210q41 55 41 78q0 32 -36 49h192l-243 -315l115 -152q76 -101 122 -149.5
t107 -83.5l-107 -5q-28 -1 -51 6.5t-46.5 31.5t-33.5 36.5t-38 51.5z" />
    <glyph glyph-name="L" unicode="L" horiz-adv-x="514" 
d="M43 700h199q-51 -32 -51 -100v-511q74 -9 115 -9q146 0 223 65l-56 -145h-430q21 15 32 35t12.5 32.5t1.5 32.5v500q0 20 -1.5 32.5t-12.5 32.5t-32 35z" />
    <glyph glyph-name="M" unicode="M" horiz-adv-x="920" 
d="M84 700h178l202 -523l188 453q14 31 21 70h173q-41 -26 -32 -101l65 -510q8 -62 49 -89h-194q32 22 38 57.5t-2 67.5l-53 470l-247 -605l-28 24q-30 27 -53 84l-196 495l-67 -476q-3 -22 -4 -33t1 -29.5t13 -31.5t30 -23h-174q44 40 54 114l70 482q7 51 1 67
q-7 21 -33 37z" />
    <glyph glyph-name="N" unicode="N" horiz-adv-x="777" 
d="M40 700h149q10 -21 15 -26l409 -510v436q0 20 -1.5 32.5t-12.5 32.5t-32 35h170q-21 -15 -32 -35t-12.5 -32.5t-1.5 -32.5v-628q-38 11 -70.5 33.5t-46 38l-39.5 47.5l-371 464v-455q0 -20 1.5 -32.5t12.5 -32.5t32 -35h-170q21 15 32 35t12.5 32.5t1.5 32.5v500
q0 20 -1.5 32.5t-12.5 32.5t-32 35z" />
    <glyph glyph-name="O" unicode="O" horiz-adv-x="840" 
d="M420 715q94 0 169.5 -32t121 -85t69.5 -116.5t24 -131.5q0 -71 -25 -136t-72 -116.5t-121.5 -82t-165.5 -30.5q-94 0 -169.5 32t-121 85t-69.5 116.5t-24 131.5q0 71 25 136t72 116.5t121.5 82t165.5 30.5zM422 633q-50 0 -97 -16.5t-86.5 -47.5t-63.5 -84t-24 -119
q0 -131 74.5 -215t192.5 -84q50 0 97 16.5t86.5 47.5t63.5 84t24 119q0 131 -74.5 215t-192.5 84z" />
    <glyph glyph-name="P" unicode="P" horiz-adv-x="560" 
d="M253 0h-210q21 15 32 34t12.5 31.5t1.5 34.5v500q0 20 -1.5 32.5t-12.5 32.5t-32 35h248q249 0 249 -185q0 -94 -67.5 -147t-158.5 -53q-39 0 -85 13q33 1 65 10t62.5 27t49.5 51.5t19 78.5q0 62 -40 96.5t-110 34.5q-39 0 -84 -10v-500q0 -87 62 -116z" />
    <glyph glyph-name="Q" unicode="Q" horiz-adv-x="840" 
d="M420 715q94 0 169.5 -32t121 -85t69.5 -116.5t24 -131.5q0 -101 -49.5 -187t-139.5 -132q184 -184 344 -177q-58 -53 -134 -53q-128 0 -341 189q-35 -5 -64 -5q-165 0 -274.5 101t-109.5 264q0 71 25 136t72 116.5t121.5 82t165.5 30.5zM422 633q-50 0 -97 -16.5
t-86.5 -47.5t-63.5 -84t-24 -119q0 -131 74.5 -215t192.5 -84q50 0 97 16.5t86.5 47.5t63.5 84t24 119q0 131 -74.5 215t-192.5 84z" />
    <glyph glyph-name="R" unicode="R" horiz-adv-x="562" 
d="M43 700q44 0 132 2q58 2 87 2q55 0 98 -9.5t69 -26t44 -34.5t26 -40.5t11 -38.5t3 -33q0 -63 -47 -113.5t-126 -63.5q68 -108 161 -212.5t161 -132.5q-84 -6 -108 -6q-40 0 -90.5 40t-97.5 103t-82 119t-64 109q41 4 79 18.5t68.5 48.5t30.5 81q0 117 -140 117
q-40 0 -67 -7v-523q0 -20 1.5 -32.5t12.5 -32.5t32 -35h-194q21 15 32 35t12.5 32.5t1.5 32.5v500q0 20 -1.5 32.5t-12.5 32.5t-32 35z" />
    <glyph glyph-name="S" unicode="S" horiz-adv-x="511" 
d="M449 693v-117q-78 65 -171 65q-75 0 -106 -31.5t-31 -69.5q0 -42 37 -69.5t139 -72.5q103 -46 146 -85t43 -113q0 -72 -40.5 -122t-102.5 -71.5t-138 -21.5q-102 0 -191 30l-29 132q95 -82 226 -82q75 0 119 28.5t44 78.5q0 12 -2.5 23t-6 19.5t-12 18l-13.5 15.5
t-18 14.5l-19 12.5t-23 12.5t-23.5 11.5l-26 11.5t-25.5 11.5q-52 24 -81 40t-60 40.5t-44.5 55t-13.5 70.5q0 35 12.5 66t40 59.5t81.5 45t128 16.5q85 0 161 -22z" />
    <glyph glyph-name="T" unicode="T" horiz-adv-x="492" 
d="M295 620v-520q0 -20 1.5 -32.5t12.5 -32.5t32 -35h-194q21 15 32 35t12.5 32.5t1.5 32.5v520l-119 1q-63 0 -104 -42l40 125q24 -4 64 -4h387q25 0 61 4l-35 -117q-19 34 -80 34z" />
    <glyph glyph-name="U" unicode="U" horiz-adv-x="730" 
d="M40 700h194q-21 -15 -32 -35t-12.5 -32.5t-1.5 -32.5v-357q0 -176 167 -176q84 0 134 43t50 120v370q0 20 -1.5 32.5t-12.5 32.5t-32 35h194q-21 -15 -32 -35t-12.5 -32.5t-1.5 -32.5v-500q0 -20 1.5 -32.5t12.5 -32.5t32 -35h-145v67q-78 -82 -203 -82q-66 0 -114.5 18
t-74.5 43.5t-41 61.5t-19 63.5t-4 58.5v370q0 20 -1.5 32.5t-12.5 32.5t-32 35z" />
    <glyph glyph-name="V" unicode="V" horiz-adv-x="592" 
d="M-40 700h156q2 -36 13 -67l183 -501l155 400q27 69 27 103q0 43 -37 65h165l-292 -728q-36 20 -59 37t-35.5 34.5t-16 25.5t-11.5 30l-191 515q-19 52 -57 86z" />
    <glyph glyph-name="W" unicode="W" horiz-adv-x="941" 
d="M-40 700h150q0 -29 10 -62l160 -519l144 447q11 35 11 65q0 46 -35 69h137q-4 -46 10 -89l156 -495l141 435q14 42 14 70q0 56 -48 79h161l-244 -728q-47 25 -75.5 53.5t-37.5 47.5t-19 52l-119 382l-171 -535q-61 36 -89.5 71.5t-43.5 83.5l-148 473q-21 68 -64 100z
" />
    <glyph glyph-name="X" unicode="X" horiz-adv-x="646" 
d="M261 374l-175 253q-38 55 -79 73l85 3q58 2 67 -1q11 -5 34 -38q5 -8 8 -12l136 -197l116 155q21 28 21 48q0 31 -39 42h192l-245 -311l206 -299q44 -64 98 -90h-166q-22 22 -46 59l-164 248l-153 -202q-27 -35 -27 -55q0 -34 41 -50h-211q36 37 73 84z" />
    <glyph glyph-name="Y" unicode="Y" horiz-adv-x="571" 
d="M-40 700l130 2q17 0 29 -5l191 -302l138 214q14 23 14 40q0 33 -34 51h173l-258 -387v-213q0 -20 1.5 -32.5t12.5 -32.5t32 -35h-194q21 15 32 35t12.5 32.5t1.5 32.5v214l-206 318q-31 48 -75 68z" />
    <glyph glyph-name="Z" unicode="Z" horiz-adv-x="609" 
d="M99 700h466l-378 -611q144 -9 197 -9q148 0 235 54l-54 -134h-560l381 615q-86 11 -162 11q-56 0 -95.5 -9.5t-80.5 -38.5z" />
    <glyph glyph-name="bracketleft" unicode="[" horiz-adv-x="343" 
d="M80 732h263v-60h-127v-869h127v-60h-263q21 15 32 35t12.5 32.5t1.5 32.5v789q0 20 -1.5 32.5t-12.5 32.5t-32 35z" />
    <glyph glyph-name="backslash" unicode="\" horiz-adv-x="382" 
d="M69 715l323 -851h-64l-323 851h64z" />
    <glyph glyph-name="bracketright" unicode="]" horiz-adv-x="343" 
d="M263 -257h-263v60h127v869h-127v60h263q-21 -15 -32 -35t-12.5 -32.5t-1.5 -32.5v-789q0 -20 1.5 -32.5t12.5 -32.5t32 -35z" />
    <glyph glyph-name="asciicircum" unicode="^" horiz-adv-x="488" 
d="M244 631l-147 -198h-67l214 288l214 -288h-67z" />
    <glyph glyph-name="underscore" unicode="_" horiz-adv-x="569" 
d="M0 -270v47h569v-47h-569z" />
    <glyph glyph-name="grave" unicode="`" horiz-adv-x="301" 
d="M54 710l247 -157l-3 -3l-298 83z" />
    <glyph glyph-name="a" unicode="a" horiz-adv-x="490" 
d="M85 392l63 104q50 9 91 9q47 0 82 -12t54 -29t29.5 -42.5t13.5 -45t3 -43.5v-195q0 -40 18.5 -54.5t53.5 -16.5h19l-48 -67h-15q-123 0 -123 112v157q-9 -6 -17 -10.5t-20 -8t-18 -5.5t-25 -6t-26 -6q-30 -7 -48 -14t-35.5 -26.5t-17.5 -47.5q0 -11 3 -23t12.5 -27
t31.5 -24.5t54 -9.5q44 0 87 13l-64 -80q-31 -9 -64 -9q-72 0 -117 44t-45 114q0 31 11.5 55t25.5 37.5t42 25.5t43.5 16t47.5 11q90 21 110 33q25 16 25 45q0 30 -24 46.5t-68 16.5q-79 0 -145 -37z" />
    <glyph glyph-name="b" unicode="b" horiz-adv-x="579" 
d="M28 700h77q30 0 53 16v-643q56 -12 100 -12q88 0 139 49.5t51 134.5q0 82 -44 133t-116 51q-52 0 -102 -25l46 74q17 27 88 27q104 0 168 -67t64 -177q0 -56 -16.5 -101t-40.5 -73t-58 -49t-63 -30.5t-63 -15t-49 -6.5t-29 -1q-89 0 -202 17q32 25 32 68v560q0 46 -35 70
z" />
    <glyph glyph-name="c" unicode="c" horiz-adv-x="508" 
d="M446 491v-110q-59 48 -133 48q-75 0 -128.5 -44.5t-53.5 -129.5q0 -87 57 -140.5t160 -53.5t165 46q-43 -82 -74 -102t-115 -20q-69 0 -125.5 15.5t-104.5 65.5q-67 69 -67 175q0 110 75 185q79 79 226 79q24 0 36.5 -1t17.5 -3t21 -4.5t43 -5.5z" />
    <glyph glyph-name="d" unicode="d" horiz-adv-x="600" 
d="M409 700h77q30 0 53 16v-646q0 -46 35 -70h-130v270q0 76 -44 117.5t-107 41.5q-68 0 -115 -48t-47 -126q0 -84 52 -139t130 -55q61 0 100 28l-44 -75q-9 -16 -23.5 -22.5t-54.5 -6.5q-116 0 -190 74t-74 185q0 114 72 187.5t178 73.5q94 0 167 -60v185q0 46 -35 70z" />
    <glyph glyph-name="e" unicode="e" horiz-adv-x="558" 
d="M534 257h-403q-4 -85 50 -140.5t162 -55.5q107 0 198 50l-66 -104q-70 -22 -153 -22q-134 0 -214.5 69t-80.5 194q0 113 72 185t194 72q67 0 117 -23.5t76 -61.5t37.5 -79t10.5 -84zM141 322h279q-5 49 -40.5 78t-91.5 29q-57 0 -96.5 -29t-50.5 -78z" />
    <glyph glyph-name="f" unicode="f" horiz-adv-x="284" 
d="M64 485v58q0 80 62.5 126t160.5 46q37 0 72 -7l-70 -79q-24 13 -55 13q-75 0 -75 -74v-83h126q5 0 21 4v-91q-11 17 -40 17h-107v-345q0 -46 40 -70h-170q35 24 35 70v345h-56z" />
    <glyph glyph-name="g" unicode="g" horiz-adv-x="555" 
d="M39 326q0 75 63.5 127t173.5 52q9 0 19.5 -0.5t23.5 -1.5t20 -1q42 -3 84 -3q76 0 154 15l-23 -58q-5 -12 -9.5 -16.5t-23 -8.5t-52.5 3l-56 7q78 -43 78 -129q0 -46 -22 -80t-57 -50t-55.5 -22t-41.5 -9q-3 0 -18 -2t-24.5 -4t-21.5 -5.5t-18.5 -9.5t-6.5 -13
q0 -6 7.5 -13t22.5 -7h40q27 0 44 -0.5t49.5 -3.5t55 -8.5t49.5 -16.5t44 -26.5t28.5 -40.5t11.5 -56q0 -83 -86 -135.5t-213 -52.5q-130 0 -209.5 42t-79.5 105q0 38 29 62t78 24q28 0 55 -15q-21 -1 -32.5 -15t-11.5 -35q0 -42 43.5 -72t121.5 -30q94 0 142 32.5t48 81.5
q0 94 -176 94q-25 0 -61.5 -1.5t-47.5 -1.5q-23 0 -37.5 7t-20 15t-12.5 24q-7 14 -7 25q0 19 25 32l59 29q-65 11 -105.5 55.5t-40.5 110.5zM257 438q-50 0 -82 -27t-32 -70q0 -53 38 -90.5t94 -37.5q49 0 80.5 29.5t31.5 77.5q0 49 -38 83.5t-92 34.5z" />
    <glyph glyph-name="h" unicode="h" horiz-adv-x="560" 
d="M28 700h77q30 0 53 16v-282q18 33 64 52t92 19q79 0 132 -39.5t53 -118.5v-277q0 -46 35 -70h-165q35 24 35 70v250q0 50 -33 79.5t-89 29.5q-124 0 -124 -115v-244q0 -46 35 -70h-165q35 24 35 70v560q0 46 -35 70z" />
    <glyph glyph-name="i" unicode="i" horiz-adv-x="218" 
d="M30 485h77q30 0 53 16v-431q0 -46 35 -70h-165q35 24 35 70v345q0 46 -35 70zM43 619q0 25 19.5 44.5t44.5 19.5t44.5 -19.5t19.5 -44.5t-19.5 -44.5t-44.5 -19.5t-44.5 19.5t-19.5 44.5z" />
    <glyph glyph-name="j" unicode="j" horiz-adv-x="220" 
d="M34 485h77q30 0 53 16v-510v-14.5v-17t-0.5 -16t-2 -18.5l-3.5 -16.5t-5 -18t-8 -15.5q-22 -36 -75.5 -58t-109.5 -26q66 34 87.5 85t21.5 120v419q0 46 -35 70zM47 619q0 25 19.5 44.5t44.5 19.5t44.5 -19.5t19.5 -44.5t-19.5 -44.5t-44.5 -19.5t-44.5 19.5t-19.5 44.5z
" />
    <glyph glyph-name="k" unicode="k" horiz-adv-x="499" 
d="M28 700h77q30 0 53 16v-646q0 -46 35 -70h-165q35 24 35 70v560q0 46 -35 70zM178 271l100 109q14 14 28 36.5t14 35.5q0 17 -23 33h163l-181 -203q20 -17 38 -40l133 -167q36 -45 79 -75l-38 -1q-55 -5 -84 -0.5t-53 37.5z" />
    <glyph glyph-name="l" unicode="l" horiz-adv-x="221" 
d="M28 700h77q30 0 53 16v-646q0 -46 35 -70h-165q35 24 35 70v560q0 46 -35 70z" />
    <glyph glyph-name="m" unicode="m" horiz-adv-x="891" 
d="M195 0h-165q35 24 35 70v345q0 46 -35 70h75q30 0 53 16v-78q48 82 150 82q120 0 166 -94q58 94 172 94q184 0 184 -201v-234q0 -46 35 -70h-165q35 24 35 70v210q0 149 -117 149q-123 0 -123 -143v-216q0 -46 35 -70h-165q35 24 35 70v217q0 142 -119 142
q-29 0 -51 -7.5t-34.5 -21t-20.5 -26t-11 -28.5t-3.5 -23t-0.5 -15v-238q0 -46 35 -70z" />
    <glyph glyph-name="n" unicode="n" horiz-adv-x="562" 
d="M195 0h-165q35 24 35 70v345q0 46 -35 70h77q30 0 53 16v-67q19 33 64 52t92 19q79 0 132 -39.5t53 -118.5v-277q0 -46 35 -70h-165q35 24 35 70v250q0 50 -33 79.5t-89 29.5q-124 0 -124 -115v-244q0 -46 35 -70z" />
    <glyph glyph-name="o" unicode="o" horiz-adv-x="610" 
d="M309 505q125 0 199.5 -77t74.5 -183q0 -113 -81.5 -186.5t-201.5 -73.5q-124 0 -198.5 77t-74.5 183q0 112 81 186t201 74zM303 429q-77 0 -124.5 -50.5t-47.5 -133.5q0 -76 46 -130t130 -54q77 0 124.5 50.5t47.5 133.5q0 76 -46 130t-130 54z" />
    <glyph glyph-name="p" unicode="p" horiz-adv-x="612" 
d="M198 -221h-170q35 24 35 70v566q0 46 -35 70h73q30 0 53 16v-79q67 83 179 83q122 0 187 -70t65 -173q0 -117 -67.5 -197t-191.5 -80q-39 0 -81 11l-61 89q54 -24 120 -24q15 0 29.5 1.5t44 11.5t50 28.5t37 57t16.5 92.5q0 85 -49 128.5t-120 43.5q-67 0 -110.5 -35
t-43.5 -107v-433q0 -46 40 -70z" />
    <glyph glyph-name="q" unicode="q" horiz-adv-x="601" 
d="M325 505h250q-35 -24 -35 -70v-586q0 -46 35 -70h-170q40 24 40 70v562q-59 13 -116 13q-98 0 -148 -51t-50 -127q0 -78 48 -131.5t150 -53.5q48 0 86 16l-50 -72q-14 -20 -56 -20q-66 0 -118 17.5t-82 44t-49.5 62.5t-26 67.5t-6.5 64.5q0 111 79 187.5t219 76.5z" />
    <glyph glyph-name="r" unicode="r" horiz-adv-x="315" 
d="M200 0h-170q35 24 35 70v345q0 46 -35 70h73q31 0 52 16v-80q52 84 135 84q19 0 35 -4v-98q-23 16 -55 16q-46 0 -78 -32.5t-32 -110.5v-206q0 -46 40 -70z" />
    <glyph glyph-name="s" unicode="s" horiz-adv-x="430" 
d="M370 487v-89q-69 40 -141 40q-45 0 -66.5 -16.5t-21.5 -39.5q0 -14 8 -25.5t28.5 -22t36.5 -16.5t52 -18q27 -9 41 -14.5t39 -18.5t38.5 -27t24.5 -37t11 -51q0 -21 -5 -41.5t-20 -44t-38.5 -41t-65 -29t-95.5 -11.5q-76 0 -153 29l-38 105q106 -67 191 -67
q60 0 92.5 20.5t32.5 51.5q0 16 -7 29t-25 24t-28 16t-37.5 15t-32.5 12q-78 30 -113.5 60t-35.5 83q0 26 9 49.5t29.5 45t61 34.5t97.5 13q71 0 131 -18z" />
    <glyph glyph-name="t" unicode="t" horiz-adv-x="308" 
d="M126 640h37v-155h112q15 0 33 4v-97q-15 23 -51 23h-94v-254q0 -106 104 -106q19 0 39 6l-58 -73q-16 -3 -32 -3q-70 0 -109 43.5t-39 115.5v271h-70v36q43 6 72 29t40 54.5t14 57t2 48.5z" />
    <glyph glyph-name="u" unicode="u" horiz-adv-x="554" 
d="M26 485h77q30 0 53 16v-310q0 -130 119 -130q55 0 89 34.5t34 89.5v230q0 46 -35 70h77q30 0 53 16v-431q0 -46 35 -70h-126v70q-51 -85 -160 -85q-80 0 -130.5 47.5t-50.5 129.5v253q0 46 -35 70z" />
    <glyph glyph-name="v" unicode="v" horiz-adv-x="490" 
d="M-40 485h94q34 0 54 17q2 -20 10 -40l147 -351l118 265q17 39 17 57q0 35 -34 52h154l-238 -513q-53 29 -73 51.5t-37 62.5l-138 321q-21 50 -74 78z" />
    <glyph glyph-name="w" unicode="w" horiz-adv-x="770" 
d="M-40 485h75q32 0 47 15l145 -390l107 286q12 31 12 47q0 24 -27 42h135q-3 -20 6 -46l117 -324l106 271q12 30 12 46q0 30 -32 53h137l-206 -513q-46 22 -64 41.5t-31 56.5l-105 280l-143 -378q-74 29 -102 100l-140 354q-15 38 -49 59z" />
    <glyph glyph-name="x" unicode="x" horiz-adv-x="507" 
d="M1 485l60 2q60 2 71.5 -1t29.5 -27l104 -138l81 94q17 19 17 36q0 21 -26 34h172l-199 -223l149 -194q35 -45 77 -68l-120 -2q-26 0 -42 22l-128 175l-106 -120q-23 -29 -23 -43q0 -18 22 -32h-170l231 256l-114 149q-42 55 -86 80z" />
    <glyph glyph-name="y" unicode="y" horiz-adv-x="472" 
d="M-57 485l87 3q7 0 14.5 0.5t11.5 0.5h8.5h7t5.5 -0.5t5 -1t4 -1.5l4 -2l164 -370l107 260q15 39 15 63q0 35 -28 48h156l-237 -541q-13 -30 -27.5 -52.5t-39 -47.5t-61.5 -39t-83 -14q-71 0 -136 27l93 68q26 -19 60 -19q24 0 43.5 8t32.5 23.5t20 27.5t15 30l26 59
q-34 32 -53 72l-147 326q-26 58 -67 72z" />
    <glyph glyph-name="z" unicode="z" horiz-adv-x="478" 
d="M83 485h377l-283 -400q71 -9 138 -9q117 0 183 39l-58 -115h-445l294 404q-56 7 -107 7q-96 0 -154 -38z" />
    <glyph glyph-name="braceleft" unicode="{" horiz-adv-x="402" 
d="M70 214v40q95 5 95 146q0 23 -1.5 59.5t-1.5 73.5q0 60 18 101.5t47.5 59.5t54 24t50.5 6v-28q-75 -12 -75 -121q0 -55 1 -82q2 -62 2 -94q0 -147 -133 -162v-6q133 -15 133 -162q0 -63 -1.5 -93t-1.5 -85q0 -112 75 -119v-28q-25 -1 -50.5 5t-54.5 24t-47 59.5
t-18 102.5q0 37 1.5 73.5t1.5 59.5q0 140 -95 146z" />
    <glyph glyph-name="bar" unicode="|" horiz-adv-x="135" 
d="M30 773h75v-1043h-75v1043z" />
    <glyph glyph-name="braceright" unicode="}" horiz-adv-x="402" 
d="M332 254v-40q-95 -5 -95 -146q0 -23 1.5 -59.5t1.5 -73.5q0 -60 -18 -101.5t-47.5 -59.5t-54 -24t-50.5 -6v28q75 12 75 121q0 55 -1 82q-2 62 -2 94q0 147 133 162v6q-133 15 -133 162q0 62 1.5 92.5t1.5 85.5q0 112 -75 119v28q25 1 50.5 -5t54.5 -24t47 -59.5
t18 -102.5q0 -37 -1.5 -73.5t-1.5 -59.5q0 -140 95 -146z" />
    <glyph glyph-name="asciitilde" unicode="~" horiz-adv-x="610" 
d="M96 566l-34 17q32 57 68 84t86 27q13 0 25.5 -1.5t24.5 -5l20.5 -6t20 -8.5t16.5 -9l16.5 -9.5t14.5 -8.5q41 -24 76 -24q49 0 85 78l34 -16q-37 -69 -69.5 -92t-70.5 -23q-25 0 -48 6.5t-36 13t-47 25.5q-55 29 -85 29q-53 0 -97 -77z" />
    <glyph glyph-name="currency" unicode="&#xa4;" horiz-adv-x="680" 
d="M595 640l40 -39l-94 -92q58 -72 58 -163t-58 -163l94 -92l-40 -39l-93 93q-69 -59 -163 -59q-91 0 -161 59l-93 -93l-40 39l93 92q-59 78 -59 163q0 90 59 163l-93 92l40 39l93 -93q65 59 161 59q94 0 163 -59zM131 346q0 -88 62 -151t146 -63q86 0 147 63t61 151
t-61 151t-147 63q-84 0 -146 -63t-62 -151z" />
    <glyph glyph-name="brokenbar" unicode="&#xa6;" horiz-adv-x="135" 
d="M30 773h75v-319h-75v319zM30 49h75v-319h-75v319z" />
    <glyph glyph-name="section" unicode="&#xa7;" horiz-adv-x="461" 
d="M373 691l3 -105q-49 45 -102 45q-35 0 -56.5 -24.5t-21.5 -61.5q0 -34 20.5 -70t84.5 -95q64 -58 97 -115t33 -148q0 -148 -65.5 -237t-162.5 -89q-61 0 -114 23l-4 108q54 -47 103 -47q29 0 53.5 22.5t24.5 63.5q0 17 -5 33.5t-9.5 27t-19.5 28l-19.5 23t-26.5 26.5
l-26 25q-67 66 -98.5 122t-31.5 143q0 145 69 235.5t160 90.5q65 0 114 -24zM281 263l-36 38l-16.5 17l-19.5 20.5t-18.5 22.5t-20 28.5t-17.5 32.5t-17 41q-7 -31 -7 -81q0 -76 53 -136l35 -40q3 -4 25 -27.5t31 -35t25.5 -40t29.5 -62.5q4 27 4 81q0 86 -51 141z" />
    <glyph glyph-name="copyright" unicode="&#xa9;" horiz-adv-x="828" 
d="M50 350q0 150 107 257t257 107t257 -107t107 -257t-107 -257t-257 -107t-257 107t-107 257zM100 350q0 -134 92 -229t222 -95t222 95t92 229t-92 229t-222 95t-222 -95t-92 -229zM555 561v-75q-59 40 -123 40q-26 0 -51.5 -7.5t-51.5 -24.5t-42.5 -50.5t-16.5 -78.5
q0 -85 49 -135.5t127 -50.5q88 0 146 45l-42 -83q-50 -15 -108 -15q-113 0 -178.5 60.5t-65.5 162.5q0 106 70 168t176 62q24 0 38.5 -2.5t32.5 -7.5t40 -8z" />
    <glyph glyph-name="guillemotleft" unicode="&#xab;" horiz-adv-x="368" 
d="M126 263l66 -181h-35l-117 181l117 181h35zM261 263l67 -181h-36l-116 181l116 181h36z" />
    <glyph glyph-name="logicalnot" unicode="&#xac;" 
d="M38 376v55h564v-265h-58v210h-506z" />
    <glyph glyph-name="registered" unicode="&#xae;" horiz-adv-x="828" 
d="M50 350q0 150 107 257t257 107t257 -107t107 -257t-107 -257t-257 -107t-257 107t-107 257zM298 188v320q0 43 -29 64q56 2 84 2h56q162 -4 162 -116q0 -39 -29.5 -71.5t-82.5 -41.5q38 -59 95 -126t93 -86q81 93 81 217q0 134 -92 229t-222 95t-222 -95t-92 -229
t92 -229t222 -95q127 0 222 95l1 1q-35 -5 -67 7.5t-55 31t-50 57t-42 65l-41 75.5q43 4 78 27.5t35 66.5q0 25 -10.5 42t-28 23t-28.5 8t-22 2q-27 0 -43 -5v-334q0 -14 1 -22t8 -20t21 -22h-124q29 21 29 64z" />
    <glyph glyph-name="degree" unicode="&#xb0;" horiz-adv-x="310" 
d="M45 590q0 45 32.5 77.5t77.5 32.5t77.5 -32.5t32.5 -77.5t-32.5 -77.5t-77.5 -32.5t-77.5 32.5t-32.5 77.5zM87 590q0 -28 19.5 -48t48.5 -20t48.5 20t19.5 48t-19.5 48t-48.5 20t-48.5 -20t-19.5 -48z" />
    <glyph glyph-name="plusminus" unicode="&#xb1;" 
d="M38 52v54h564v-54h-564zM347 161h-54v206h-255v54h255v233h54v-233h255v-54h-255v-206z" />
    <glyph glyph-name="mu" unicode="&#xb5;" horiz-adv-x="549" 
d="M21 485h77q30 0 53 16v-299q0 -13 1 -25t7.5 -35t18 -39t35.5 -29t57 -13q54 0 88.5 35t34.5 89v230q0 46 -35 70h77q30 0 53 16v-431q0 -46 35 -70h-126v70q-50 -85 -141 -85q-88 0 -124 87l11 -293h-95l8 292v344q0 46 -35 70z" />
    <glyph glyph-name="mu" unicode="&#x3bc;" horiz-adv-x="549" 
d="M21 485h77q30 0 53 16v-299q0 -13 1 -25t7.5 -35t18 -39t35.5 -29t57 -13q54 0 88.5 35t34.5 89v230q0 46 -35 70h77q30 0 53 16v-431q0 -46 35 -70h-126v70q-50 -85 -141 -85q-88 0 -124 87l11 -293h-95l8 292v344q0 46 -35 70z" />
    <glyph glyph-name="paragraph" unicode="&#xb6;" horiz-adv-x="616" 
d="M458 700h133q-21 -15 -32 -35t-12.5 -32.5t-1.5 -32.5v-709q0 -20 1.5 -32.5t12.5 -32.5t32 -35h-133v909zM405 700v-909h-133q21 15 32 35t12.5 32.5t1.5 32.5v309q-78 -3 -140 35t-92.5 95.5t-30.5 119.5q0 44 17.5 87.5t50 80t86 59.5t118.5 23h78z" />
    <glyph glyph-name="periodcentered" unicode="&#xb7;" horiz-adv-x="328" 
d="M80 280q0 35 24.5 59.5t59.5 24.5t59.5 -24.5t24.5 -59.5t-24.5 -59.5t-59.5 -24.5t-59.5 24.5t-24.5 59.5z" />
    <glyph glyph-name="periodcentered" unicode="&#x2219;" horiz-adv-x="328" 
d="M80 280q0 35 24.5 59.5t59.5 24.5t59.5 -24.5t24.5 -59.5t-24.5 -59.5t-59.5 -24.5t-59.5 24.5t-24.5 59.5z" />
    <glyph glyph-name="guillemotright" unicode="&#xbb;" horiz-adv-x="368" 
d="M107 263l-67 181h36l116 -181l-116 -181h-36zM242 263l-66 181h35l117 -181l-117 -181h-35z" />
    <glyph glyph-name="afii10023" unicode="&#x401;" horiz-adv-x="515" 
d="M43 700h388v-115q-32 37 -105 36l-135 -3v-200h144q19 0 36 3v-109q-26 26 -76 26h-104v-251q71 -7 130 -7q79 0 126.5 15t82.5 46l-51 -141h-436q46 32 46 100v500q0 68 -46 100zM85 809q0 29 19.5 48.5t48.5 19.5t48.5 -19.5t19.5 -48.5t-19.5 -48.5t-48.5 -19.5
t-48.5 19.5t-19.5 48.5zM294 809q0 29 20 48.5t48 19.5t48 -19.5t20 -48.5t-20 -48.5t-48 -19.5t-48 19.5t-20 48.5z" />
    <glyph glyph-name="afii10051" unicode="&#x402;" horiz-adv-x="729" 
d="M280 620v-201q102 41 193 41q100 0 163 -72.5t63 -238.5q0 -175 -62.5 -271.5t-210.5 -112.5q158 120 158 380q0 131 -39.5 182t-113.5 51q-70 0 -151 -36v-242q0 -20 1.5 -32.5t12.5 -32.5t32 -35h-194q21 15 32 35t12.5 32.5t1.5 32.5v520l-104 1q-63 0 -104 -42
l40 125q24 -4 64 -4h387q25 0 61 4l-35 -117q-19 34 -80 34z" />
    <glyph glyph-name="afii10052" unicode="&#x403;" horiz-adv-x="458" 
d="M43 700h392q19 0 36 3v-124q-19 26 -49.5 33.5t-93.5 7.5q-9 0 -137 -4v-516q0 -68 51 -100h-199q46 32 46 100v500q0 68 -46 100zM386 917l61 -87l-307 -86l-10 10z" />
    <glyph glyph-name="afii10053" unicode="&#x404;" horiz-adv-x="666" 
d="M610 688v-122q-97 67 -198 67q-103 0 -174.5 -59.5t-86.5 -155.5h267q20 0 36 3v-109q-26 26 -76 26h-227q7 -118 82 -194.5t203 -76.5q144 0 235 77l-68 -134q-76 -25 -174 -25q-87 0 -156 23t-112.5 59.5t-72.5 85t-40.5 96t-11.5 96.5q0 74 25.5 139.5t73.5 117.5
t125 82.5t173 30.5q44 0 63.5 -3.5t45 -10.5t68.5 -13z" />
    <glyph glyph-name="afii10054" unicode="&#x405;" horiz-adv-x="511" 
d="M449 693v-117q-78 65 -171 65q-75 0 -106 -31.5t-31 -69.5q0 -42 37 -69.5t139 -72.5q103 -46 146 -85t43 -113q0 -72 -40.5 -122t-102.5 -71.5t-138 -21.5q-102 0 -191 30l-29 132q95 -82 226 -82q75 0 119 28.5t44 78.5q0 12 -2.5 23t-6 19.5t-12 18l-13.5 15.5
t-18 14.5l-19 12.5t-23 12.5t-23.5 11.5l-26 11.5t-25.5 11.5q-52 24 -81 40t-60 40.5t-44.5 55t-13.5 70.5q0 35 12.5 66t40 59.5t81.5 45t128 16.5q85 0 161 -22z" />
    <glyph glyph-name="afii10055" unicode="&#x406;" horiz-adv-x="280" 
d="M43 700h194q-21 -15 -32 -35t-12.5 -32.5t-1.5 -32.5v-500q0 -20 1.5 -32.5t12.5 -32.5t32 -35h-194q21 15 32 35t12.5 32.5t1.5 32.5v500q0 20 -1.5 32.5t-12.5 32.5t-32 35z" />
    <glyph glyph-name="afii10056" unicode="&#x407;" horiz-adv-x="345" 
d="M76 700h194q-21 -15 -32 -35t-12.5 -32.5t-1.5 -32.5v-500q0 -20 1.5 -32.5t12.5 -32.5t32 -35h-194q21 15 32 35t12.5 32.5t1.5 32.5v500q0 20 -1.5 32.5t-12.5 32.5t-32 35zM0 809q0 29 20 48.5t48 19.5t48 -19.5t20 -48.5t-20 -48.5t-48 -19.5t-48 19.5t-20 48.5z
M209 809q0 29 19.5 48.5t48.5 19.5t48.5 -19.5t19.5 -48.5t-19.5 -48.5t-48.5 -19.5t-48.5 19.5t-19.5 48.5z" />
    <glyph glyph-name="afii10057" unicode="&#x408;" horiz-adv-x="280" 
d="M39 700h201q-21 -15 -32 -35t-12.5 -32.5t-1.5 -32.5v-616v-9q0 -27 -0.5 -41.5t-6.5 -35.5t-17 -38q-27 -40 -89 -65.5t-116 -29.5q75 44 101 97.5t26 125.5v612q0 70 -53 100z" />
    <glyph glyph-name="afii10058" unicode="&#x409;" horiz-adv-x="949" 
d="M546 600v-167q116 7 131 7q122 0 189.5 -55t67.5 -157q0 -53 -17 -94t-46.5 -64.5t-59.5 -39t-68 -21.5t-58.5 -7.5t-43.5 -1.5h-243q21 15 32 35t12.5 32.5t1.5 32.5v520h-203l2 -96q12 -539 -206 -539q-21 0 -45 9l-12 112q31 -26 61 -26q18 0 34 13t31 45t26 81
t18 127.5t7 178.5q0 75 -14.5 116.5t-60.5 58.5h511q-21 -15 -32 -34t-13 -32t-2 -34zM546 357v-274q50 -9 104 -9q51 0 87 15t52.5 40t23 48t6.5 49q0 138 -188 138q-36 0 -85 -7z" />
    <glyph glyph-name="afii10059" unicode="&#x40a;" horiz-adv-x="1081" 
d="M191 424h385v176q0 22 -1.5 34.5t-12.5 31.5t-32 34h194q-21 -15 -32 -34t-12.5 -31.5t-1.5 -34.5v-167q116 7 131 7q122 0 189.5 -55t67.5 -157q0 -53 -17 -94t-46.5 -64.5t-59.5 -39t-68 -21.5t-58.5 -7.5t-43.5 -1.5h-243q21 15 32 35t12.5 32.5t1.5 32.5v244h-385
v-244q0 -22 1.5 -34.5t12.5 -31.5t32 -34h-194q21 15 32 34t12.5 31.5t1.5 34.5v500q0 22 -1.5 34.5t-12.5 31.5t-32 34h194q-21 -15 -32 -34t-12.5 -31.5t-1.5 -34.5v-176zM678 357v-274q50 -9 104 -9q51 0 87 15t52.5 40t23 48t6.5 49q0 138 -188 138q-36 0 -85 -7z" />
    <glyph glyph-name="afii10060" unicode="&#x40b;" horiz-adv-x="738" 
d="M280 620v-201q115 41 208 41q55 0 95.5 -14t62.5 -34t35 -48.5t16.5 -50.5t3.5 -46v-167q0 -21 2 -34t15.5 -32.5t39.5 -33.5h-217q20 11 33 23.5t18 27.5t6 24.5t1 24.5v135q0 28 -4.5 48.5t-18.5 44.5t-47 37t-83 13q-79 0 -166 -36v-242q0 -20 1.5 -32.5t12.5 -32.5
t32 -35h-194q21 15 32 35t12.5 32.5t1.5 32.5v520l-104 1q-63 0 -104 -42l40 125q24 -4 64 -4h387q25 0 61 4l-35 -117q-19 34 -80 34z" />
    <glyph glyph-name="afii10061" unicode="&#x40c;" horiz-adv-x="585" 
d="M43 700h194q-21 -15 -32 -35t-12.5 -32.5t-1.5 -32.5v-500q0 -20 1.5 -32.5t12.5 -32.5t32 -35h-194q21 15 32 35t12.5 32.5t1.5 32.5v500q0 20 -1.5 32.5t-12.5 32.5t-32 35zM211 363l156 210q41 55 41 78q0 32 -36 49h192l-243 -315l115 -152q76 -101 122 -149.5
t107 -83.5l-107 -5q-28 -1 -51 6.5t-46.5 31.5t-33.5 36.5t-38 51.5zM420 917l61 -87l-307 -86l-10 10z" />
    <glyph glyph-name="afii10062" unicode="&#x40e;" horiz-adv-x="589" 
d="M-20 700h162l195 -418l134 304q14 28 14 65q0 35 -29 49h153l-251 -558q-40 -89 -94 -120.5t-119 -31.5q-63 0 -108 27l67 75q23 -18 55 -18q42 0 72 24t45 57l19 39q-42 29 -69 82l-176 350q-28 57 -70 74zM165 889h88q-20 -29 3 -55t61 -26t61 26t3 55h88
q2 -60 -41 -101t-111 -41t-111 41t-41 101z" />
    <glyph glyph-name="afii10145" unicode="&#x40f;" horiz-adv-x="727" 
d="M638 600v-500q0 -22 1.5 -34.5t12.5 -31.5t32 -34h-269v-105q0 -22 1.5 -34.5t12.5 -31.5t32 -34h-194q21 15 32 34t12.5 31.5t1.5 34.5v105h-270q21 15 32 34t12.5 31.5t1.5 34.5v500q0 22 -1.5 34.5t-12.5 31.5t-32 34h194q-21 -15 -32 -34t-12.5 -31.5t-1.5 -34.5
v-520h345v520q0 22 -1.5 34.5t-12.5 31.5t-32 34h194q-21 -15 -32 -34t-12.5 -31.5t-1.5 -34.5z" />
    <glyph glyph-name="afii10017" unicode="&#x410;" horiz-adv-x="658" 
d="M218 700h164l241 -597q30 -74 85 -103h-215q52 23 30 78l-76 188h-269l-63 -157q-29 -72 24 -109h-189q35 23 54 52.5t37 74.5l200 506q19 48 -23 67zM312 609l-108 -276h217z" />
    <glyph glyph-name="afii10018" unicode="&#x411;" horiz-adv-x="594" 
d="M43 700h427q20 0 36 3v-118q-33 35 -105 35h-210v-197q115 7 131 7q122 0 189.5 -54t67.5 -153q0 -45 -13.5 -81t-33.5 -58.5t-49.5 -39.5t-55.5 -25t-57 -12.5t-48 -5.5t-36 -1h-243q21 15 32 35t12.5 32.5t1.5 32.5v500q0 20 -1.5 32.5t-12.5 32.5t-32 35zM191 351
v-268q48 -9 104 -9q51 0 87 15t52.5 40t23 48t6.5 48q0 131 -188 131q-25 0 -85 -5z" />
    <glyph glyph-name="afii10019" unicode="&#x412;" horiz-adv-x="592" 
d="M43 700l269 5q89 2 145 -41t56 -116q0 -59 -33 -93t-73 -49q76 -8 124 -59t48 -129q0 -30 -6.5 -57.5t-26.5 -57.5t-51 -52t-85 -36.5t-124 -14.5h-243q21 15 32 35t12.5 32.5t1.5 32.5v500q0 20 -1.5 32.5t-12.5 32.5t-32 35zM191 625v-204l55 -1q74 -1 113.5 32
t39.5 80q0 43 -32 71t-97 28q-33 0 -79 -6zM191 352v-269q61 -9 104 -9q54 0 90.5 14.5t52 38.5t21 43.5t5.5 40.5q0 56 -43 100.5t-147 44.5q-28 0 -83 -4z" />
    <glyph glyph-name="afii10020" unicode="&#x413;" horiz-adv-x="458" 
d="M43 700h392q19 0 36 3v-124q-19 26 -49.5 33.5t-93.5 7.5q-9 0 -137 -4v-516q0 -68 51 -100h-199q46 32 46 100v500q0 68 -46 100z" />
    <glyph glyph-name="afii10021" unicode="&#x414;" horiz-adv-x="662" 
d="M108 700h509q-21 -15 -32 -35t-12.5 -32.5t-1.5 -32.5v-520h96v-240l-60 -23q1 20 -0.5 44t-8.5 59t-28 57.5t-54 22.5h-400q-33 0 -54 -22.5t-28 -57.5t-8.5 -59t-0.5 -44l-60 23v240h82q126 200 126 478q0 49 -12.5 84.5t-52.5 57.5zM469 620h-208q1 -325 -114 -540
h322v540z" />
    <glyph glyph-name="afii10022" unicode="&#x415;" horiz-adv-x="515" 
d="M43 700h388v-115q-32 37 -105 36l-135 -3v-200h144q19 0 36 3v-109q-26 26 -76 26h-104v-251q71 -7 130 -7q79 0 126.5 15t82.5 46l-51 -141h-436q46 32 46 100v500q0 68 -46 100z" />
    <glyph glyph-name="afii10024" unicode="&#x416;" horiz-adv-x="890" 
d="M348 700h194q-21 -15 -32 -35t-12.5 -32.5t-1.5 -32.5v-500q0 -20 1.5 -32.5t12.5 -32.5t32 -35h-194q21 15 32 35t12.5 32.5t1.5 32.5v500q0 20 -1.5 32.5t-12.5 32.5t-32 35zM516 363l156 210q41 55 41 78q0 32 -36 49h192l-243 -315l115 -152l61 -78q45 -56 81.5 -91
t86.5 -64l-107 -5q-28 -1 -51 6.5t-46.5 31.5t-33.5 36.5t-38 51.5zM374 363l-178 -242q-28 -39 -38 -51.5t-33.5 -36.5t-46.5 -31.5t-51 -6.5l-107 5q50 29 86.5 64t81.5 91l61 78l115 152l-243 315h192q-36 -17 -36 -49q0 -23 41 -78z" />
    <glyph glyph-name="afii10025" unicode="&#x417;" horiz-adv-x="562" 
d="M47 573l15 126q52 3 96 9.5t98 6.5q20 0 36 -1t48.5 -5t57.5 -15.5t51 -29t40 -48t14 -70.5q0 -39 -15 -69t-39 -46.5t-43 -24.5t-38 -12v-3q69 0 119 -45t50 -128q0 -50 -17.5 -90.5t-47 -66.5t-70 -43.5t-85 -25t-93.5 -7.5q-113 0 -197 42l-27 136q93 -96 219 -96
q94 0 148.5 37.5t54.5 104.5q0 64 -46.5 99t-124.5 35q-63 0 -99 -18v104q37 -8 73 -8q92 0 127.5 33.5t35.5 77.5q0 48 -34 74.5t-97 26.5q-109 0 -210 -60z" />
    <glyph glyph-name="afii10026" unicode="&#x418;" horiz-adv-x="767" 
d="M191 131l356 530q17 26 35 39h142q-21 -15 -32 -34t-12.5 -31.5t-1.5 -34.5v-500q0 -22 1.5 -34.5t12.5 -31.5t32 -34h-194q21 15 32 34t12.5 31.5t1.5 34.5v469l-356 -530q-17 -26 -35 -39h-142q21 15 32 34t12.5 31.5t1.5 34.5v500q0 22 -1.5 34.5t-12.5 31.5t-32 34
h194q-21 -15 -32 -34t-12.5 -31.5t-1.5 -34.5v-469z" />
    <glyph glyph-name="afii10027" unicode="&#x419;" horiz-adv-x="767" 
d="M191 131l356 530q17 26 35 39h142q-21 -15 -32 -34t-12.5 -31.5t-1.5 -34.5v-500q0 -22 1.5 -34.5t12.5 -31.5t32 -34h-194q21 15 32 34t12.5 31.5t1.5 34.5v469l-356 -530q-17 -26 -35 -39h-142q21 15 32 34t12.5 31.5t1.5 34.5v500q0 22 -1.5 34.5t-12.5 31.5t-32 34
h194q-21 -15 -32 -34t-12.5 -31.5t-1.5 -34.5v-469zM234 889h88q-21 -31 2.5 -56t59.5 -25t59.5 25t2.5 56h88q2 -60 -41 -101t-109 -41t-109 41t-41 101z" />
    <glyph glyph-name="afii10028" unicode="&#x41a;" horiz-adv-x="585" 
d="M43 700h194q-21 -15 -32 -35t-12.5 -32.5t-1.5 -32.5v-500q0 -20 1.5 -32.5t12.5 -32.5t32 -35h-194q21 15 32 35t12.5 32.5t1.5 32.5v500q0 20 -1.5 32.5t-12.5 32.5t-32 35zM211 363l156 210q41 55 41 78q0 32 -36 49h192l-243 -315l115 -152q76 -101 122 -149.5
t107 -83.5l-107 -5q-28 -1 -51 6.5t-46.5 31.5t-33.5 36.5t-38 51.5z" />
    <glyph glyph-name="afii10029" unicode="&#x41b;" horiz-adv-x="637" 
d="M547 600v-500q0 -20 1.5 -32.5t12.5 -32.5t32 -35h-194q21 15 32 35t12.5 32.5t1.5 32.5v520h-201v-110q0 -60 -1.5 -108.5t-6.5 -104.5t-14 -99t-24 -84.5t-36 -68.5t-51.5 -43.5t-68.5 -16.5q-24 0 -49 9l-13 115q29 -29 62 -29q34 0 58.5 39t36 105.5t16.5 133
t5 141.5q0 93 -13 138.5t-60 62.5h509q-21 -15 -32 -34t-13 -32t-2 -34z" />
    <glyph glyph-name="afii10030" unicode="&#x41c;" horiz-adv-x="920" 
d="M84 700h178l202 -523l188 453q14 31 21 70h173q-41 -26 -32 -101l65 -510q8 -62 49 -89h-194q32 22 38 57.5t-2 67.5l-53 470l-247 -605l-28 24q-30 27 -53 84l-196 495l-67 -476q-3 -22 -4 -33t1 -29.5t13 -31.5t30 -23h-174q44 40 54 114l70 482q7 51 1 67
q-7 21 -33 37z" />
    <glyph glyph-name="afii10031" unicode="&#x41d;" horiz-adv-x="767" 
d="M191 424h385v176q0 22 -1.5 34.5t-12.5 31.5t-32 34h194q-21 -15 -32 -34t-12.5 -31.5t-1.5 -34.5v-500q0 -22 1.5 -34.5t12.5 -31.5t32 -34h-194q21 15 32 34t12.5 31.5t1.5 34.5v244h-385v-244q0 -22 1.5 -34.5t12.5 -31.5t32 -34h-194q21 15 32 34t12.5 31.5t1.5 34.5
v500q0 22 -1.5 34.5t-12.5 31.5t-32 34h194q-21 -15 -32 -34t-12.5 -31.5t-1.5 -34.5v-176z" />
    <glyph glyph-name="afii10032" unicode="&#x41e;" horiz-adv-x="840" 
d="M420 715q94 0 169.5 -32t121 -85t69.5 -116.5t24 -131.5q0 -71 -25 -136t-72 -116.5t-121.5 -82t-165.5 -30.5q-94 0 -169.5 32t-121 85t-69.5 116.5t-24 131.5q0 71 25 136t72 116.5t121.5 82t165.5 30.5zM422 633q-50 0 -97 -16.5t-86.5 -47.5t-63.5 -84t-24 -119
q0 -131 74.5 -215t192.5 -84q50 0 97 16.5t86.5 47.5t63.5 84t24 119q0 131 -74.5 215t-192.5 84z" />
    <glyph glyph-name="afii10033" unicode="&#x41f;" horiz-adv-x="727" 
d="M89 100v500q0 22 -1.5 34.5t-12.5 31.5t-32 34h641q-21 -15 -32 -34t-12.5 -31.5t-1.5 -34.5v-500q0 -22 1.5 -34.5t12.5 -31.5t32 -34h-194q21 15 32 34t12.5 31.5t1.5 34.5v520h-345v-520q0 -22 1.5 -34.5t12.5 -31.5t32 -34h-194q21 15 32 34t12.5 31.5t1.5 34.5z" />
    <glyph glyph-name="afii10034" unicode="&#x420;" horiz-adv-x="560" 
d="M253 0h-210q21 15 32 34t12.5 31.5t1.5 34.5v500q0 20 -1.5 32.5t-12.5 32.5t-32 35h248q249 0 249 -185q0 -94 -67.5 -147t-158.5 -53q-39 0 -85 13q33 1 65 10t62.5 27t49.5 51.5t19 78.5q0 62 -40 96.5t-110 34.5q-39 0 -84 -10v-500q0 -87 62 -116z" />
    <glyph glyph-name="afii10035" unicode="&#x421;" horiz-adv-x="667" 
d="M611 688v-122q-94 64 -198 64q-106 0 -184 -68.5t-78 -189.5q0 -57 17 -109t50 -96t89.5 -70.5t129.5 -26.5q146 0 235 74l-68 -134q-78 -25 -175 -25q-86 0 -155.5 23t-113 59t-72.5 84.5t-40.5 96.5t-11.5 97q0 98 43.5 181t133.5 136t212 53q55 0 130 -16
q30 -7 56 -11z" />
    <glyph glyph-name="afii10036" unicode="&#x422;" horiz-adv-x="492" 
d="M295 620v-520q0 -20 1.5 -32.5t12.5 -32.5t32 -35h-194q21 15 32 35t12.5 32.5t1.5 32.5v520l-119 1q-63 0 -104 -42l40 125q24 -4 64 -4h387q25 0 61 4l-35 -117q-19 34 -80 34z" />
    <glyph glyph-name="afii10037" unicode="&#x423;" horiz-adv-x="589" 
d="M-20 700h162l195 -418l134 304q14 28 14 65q0 35 -29 49h153l-251 -558q-40 -89 -94 -120.5t-119 -31.5q-63 0 -108 27l67 75q23 -18 55 -18q42 0 72 24t45 57l19 39q-42 29 -69 82l-176 350q-28 57 -70 74z" />
    <glyph glyph-name="afii10038" unicode="&#x424;" horiz-adv-x="844" 
d="M326 750h193q-49 -34 -46 -91q85 9 160.5 -17.5t125 -93t49.5 -161.5q0 -133 -97.5 -213.5t-237.5 -69.5v-10q0 -61 46 -94h-193q45 32 45 94v10q-85 -9 -160.5 17.5t-125 93t-49.5 161.5q0 133 97.5 213.5t237.5 69.5q5 56 -45 91zM371 178v407q-88 6 -154 -45.5
t-66 -151.5q0 -96 60.5 -156t159.5 -54zM473 585v-407q88 -6 154 45.5t66 151.5q0 96 -60.5 156t-159.5 54z" />
    <glyph glyph-name="afii10039" unicode="&#x425;" horiz-adv-x="646" 
d="M261 374l-175 253q-38 55 -79 73l85 3q58 2 67 -1q11 -5 34 -38q5 -8 8 -12l136 -197l116 155q21 28 21 48q0 31 -39 42h192l-245 -311l206 -299q44 -64 98 -90h-166q-22 22 -46 59l-164 248l-153 -202q-27 -35 -27 -55q0 -34 41 -50h-211q36 37 73 84z" />
    <glyph glyph-name="afii10040" unicode="&#x426;" horiz-adv-x="754" 
d="M43 700h194q-21 -15 -32 -34t-12.5 -31.5t-1.5 -34.5v-520h370v520q0 22 -1.5 34.5t-12.5 31.5t-32 34h194q-21 -15 -32 -34t-12.5 -31.5t-1.5 -34.5v-520h96v-240l-60 -23q1 20 -0.5 44t-8.5 59t-28 57.5t-54 22.5h-565q21 15 32 34t12.5 31.5t1.5 34.5v500
q0 22 -1.5 34.5t-12.5 31.5t-32 34z" />
    <glyph glyph-name="afii10041" unicode="&#x427;" horiz-adv-x="699" 
d="M77 480v120q0 21 -2 34t-15.5 32.5t-39.5 33.5h217q-20 -11 -33 -23.5t-18 -27.5t-6 -24.5t-1 -24.5v-88q0 -28 4.5 -48.5t19.5 -44.5t50 -37t89 -13q77 0 166 36v195q0 20 -1.5 32.5t-12.5 32.5t-32 35h194q-21 -15 -32 -35t-12.5 -32.5t-1.5 -32.5v-500
q0 -20 1.5 -32.5t12.5 -32.5t32 -35h-194q21 15 32 35t12.5 32.5t1.5 32.5v228q-109 -41 -208 -41q-60 0 -104.5 16t-66.5 37t-34.5 51t-15 49t-2.5 40z" />
    <glyph glyph-name="afii10042" unicode="&#x428;" horiz-adv-x="1014" 
d="M43 700h194q-21 -15 -32 -34t-12.5 -31.5t-1.5 -34.5v-520h265v520q0 22 -1.5 34.5t-12.5 31.5t-32 34h194q-21 -15 -32 -34t-12.5 -31.5t-1.5 -34.5v-520h265v520q0 22 -1.5 34.5t-12.5 31.5t-32 34h194q-21 -15 -32 -34t-12.5 -31.5t-1.5 -34.5v-500q0 -22 1.5 -34.5
t12.5 -31.5t32 -34h-928q21 15 32 34t12.5 31.5t1.5 34.5v500q0 22 -1.5 34.5t-12.5 31.5t-32 34z" />
    <glyph glyph-name="afii10043" unicode="&#x429;" horiz-adv-x="1016" 
d="M43 700h194q-21 -15 -32 -34t-12.5 -31.5t-1.5 -34.5v-520h265v520q0 22 -1.5 34.5t-12.5 31.5t-32 34h194q-21 -15 -32 -34t-12.5 -31.5t-1.5 -34.5v-520h265v520q0 22 -1.5 34.5t-12.5 31.5t-32 34h194q-21 -15 -32 -34t-12.5 -31.5t-1.5 -34.5v-520h96v-240l-60 -23
q1 20 -0.5 44t-8.5 59t-28 57.5t-54 22.5h-827q21 15 32 34t12.5 31.5t1.5 34.5v500q0 22 -1.5 34.5t-12.5 31.5t-32 34z" />
    <glyph glyph-name="afii10044" unicode="&#x42a;" horiz-adv-x="696" 
d="M191 620h-117q-66 0 -104 -41l40 125q24 -4 64 -4h265q-21 -15 -32 -35t-12.5 -32.5t-1.5 -32.5v-167q115 7 131 7q122 0 189.5 -55t67.5 -157q0 -53 -17 -94t-46.5 -64.5t-59.5 -39t-68 -21.5t-58.5 -7.5t-43.5 -1.5h-243q21 15 32 35t12.5 32.5t1.5 32.5v520zM293 358
v-273q50 -9 104 -9q46 0 80 13.5t50.5 30.5t26 41.5t11 38.5t1.5 29q0 135 -188 135q-32 0 -85 -6z" />
    <glyph glyph-name="afii10045" unicode="&#x42b;" horiz-adv-x="867" 
d="M43 700h194q-21 -15 -32 -35t-12.5 -32.5t-1.5 -32.5v-168q91 8 131 8q122 0 189.5 -55t67.5 -157q0 -53 -17 -94t-46.5 -64.5t-59.5 -39t-68 -21.5t-58.5 -7.5t-43.5 -1.5h-243q21 15 32 35t12.5 32.5t1.5 32.5v500q0 20 -1.5 32.5t-12.5 32.5t-32 35zM191 358v-273
q50 -9 104 -9q46 0 80 13.5t50.5 30.5t26 41.5t11 38.5t1.5 29q0 135 -188 135q-32 0 -85 -6zM630 700h194q-21 -15 -32 -35t-12.5 -32.5t-1.5 -32.5v-500q0 -20 1.5 -32.5t12.5 -32.5t32 -35h-194q21 15 32 35t12.5 32.5t1.5 32.5v500q0 20 -1.5 32.5t-12.5 32.5t-32 35z
" />
    <glyph glyph-name="afii10046" unicode="&#x42c;" horiz-adv-x="594" 
d="M43 700h194q-21 -15 -32 -35t-12.5 -32.5t-1.5 -32.5v-168q91 8 131 8q122 0 189.5 -55t67.5 -157q0 -53 -17 -94t-46.5 -64.5t-59.5 -39t-68 -21.5t-58.5 -7.5t-43.5 -1.5h-243q21 15 32 35t12.5 32.5t1.5 32.5v500q0 20 -1.5 32.5t-12.5 32.5t-32 35zM191 358v-273
q50 -9 104 -9q46 0 80 13.5t50.5 30.5t26 41.5t11 38.5t1.5 29q0 135 -188 135q-32 0 -85 -6z" />
    <glyph glyph-name="afii10047" unicode="&#x42d;" horiz-adv-x="644" 
d="M37 573l15 126q44 2 95 9t98 7q171 0 267 -91.5t96 -248.5q0 -172 -107.5 -281t-282.5 -109q-112 0 -201 42l-12 136q90 -96 214 -96q117 0 193 73t81 188h-240q-50 0 -76 -26v109q17 -3 36 -3h277q-7 94 -69.5 159.5t-173.5 65.5q-109 0 -210 -60z" />
    <glyph glyph-name="afii10048" unicode="&#x42e;" horiz-adv-x="1069" 
d="M191 424h122q10 57 37 108t70.5 92.5t107.5 66t141 24.5q89 0 160 -32t114.5 -85t66.5 -116.5t23 -131.5q0 -71 -24 -136t-68.5 -116.5t-115 -82t-156.5 -30.5q-158 0 -260.5 100t-103.5 259h-114v-244q0 -22 1.5 -34.5t12.5 -31.5t32 -34h-194q21 15 32 34t12.5 31.5
t1.5 34.5v500q0 22 -1.5 34.5t-12.5 31.5t-32 34h194q-21 -15 -32 -34t-12.5 -31.5t-1.5 -34.5v-176zM671 633q-101 0 -176 -69t-75 -198q0 -130 69.5 -214.5t177.5 -84.5q110 0 180.5 75.5t70.5 191.5q0 53 -15 104t-43.5 95.5t-77.5 72t-111 27.5z" />
    <glyph glyph-name="afii10049" unicode="&#x42f;" horiz-adv-x="588" 
d="M397 100v524q-30 6 -67 6q-75 0 -108.5 -36.5t-33.5 -90.5q0 -68 57 -101.5t123 -28.5q-32 -58 -68 -115t-84 -121t-97.5 -103.5t-89.5 -39.5q-17 0 -109 6q136 62 323 336q-72 13 -121 58t-49 113q0 24 3.5 45.5t18.5 51t40.5 50t75 35.5t115.5 15q29 0 87 -2
q88 -2 132 -2q-21 -15 -32 -35t-12.5 -32.5t-1.5 -32.5v-500q0 -20 1.5 -32.5t12.5 -32.5t32 -35h-194q21 15 32 35t12.5 32.5t1.5 32.5z" />
    <glyph glyph-name="afii10065" unicode="&#x430;" horiz-adv-x="490" 
d="M85 392l63 104q50 9 91 9q47 0 82 -12t54 -29t29.5 -42.5t13.5 -45t3 -43.5v-195q0 -40 18.5 -54.5t53.5 -16.5h19l-48 -67h-15q-123 0 -123 112v157q-9 -6 -17 -10.5t-20 -8t-18 -5.5t-25 -6t-26 -6q-30 -7 -48 -14t-35.5 -26.5t-17.5 -47.5q0 -11 3 -23t12.5 -27
t31.5 -24.5t54 -9.5q44 0 87 13l-64 -80q-31 -9 -64 -9q-72 0 -117 44t-45 114q0 31 11.5 55t25.5 37.5t42 25.5t43.5 16t47.5 11q90 21 110 33q25 16 25 45q0 30 -24 46.5t-68 16.5q-79 0 -145 -37z" />
    <glyph glyph-name="afii10066" unicode="&#x431;" horiz-adv-x="602" 
d="M529 718l-51 -107q-57 -8 -122.5 -8t-104.5 -12q-38 -11 -65.5 -36t-42.5 -57.5t-22 -65t-9 -69.5q28 63 85 94.5t129 31.5q107 0 178 -66t71 -179q0 -116 -76 -187.5t-195 -71.5q-126 0 -197 81.5t-71 225.5q0 134 38 221t92 129q46 36 100.5 47t144.5 11h62q38 0 56 18
zM311 413q-79 0 -125 -48.5t-46 -123.5q0 -81 46 -130.5t124 -49.5q69 0 115 44t46 123q0 48 -14.5 87.5t-52 68.5t-93.5 29z" />
    <glyph glyph-name="afii10067" unicode="&#x432;" horiz-adv-x="471" 
d="M30 485l248 3q65 1 105 -30.5t40 -82.5q0 -44 -31 -70t-73 -31v-3q60 1 99.5 -34t39.5 -91q0 -25 -9 -48t-30.5 -46.5t-66 -37.5t-107.5 -14h-215q35 24 35 70v345q0 46 -35 70zM160 423v-131l51 -1q56 -1 82 20.5t26 52.5q0 64 -86 64q-33 0 -73 -5zM160 233v-166
q54 -7 85 -7q35 0 58.5 9.5t33.5 24.5t13.5 27.5t3.5 24.5q0 37 -27 64t-97 27q-26 0 -70 -4z" />
    <glyph glyph-name="afii10068" unicode="&#x433;" horiz-adv-x="358" 
d="M160 415v-345q0 -46 35 -70h-165q35 24 35 70v345q0 46 -35 70h296q9 0 42 3v-96q-15 23 -56 23h-152z" />
    <glyph glyph-name="afii10069" unicode="&#x434;" horiz-adv-x="530" 
d="M89 485h398q-35 -24 -35 -70v-345h78v-205l-50 -28q1 57 -7 92.5t-25 49.5t-30 17.5t-34 3.5h-257q-41 0 -67 -33.5t-23 -129.5l-50 28v205h60q89 129 89 310q0 80 -47 105zM357 415h-145q2 -20 2 -59q0 -30 -4.5 -67.5t-24 -101.5t-52.5 -117h224v345z" />
    <glyph glyph-name="afii10070" unicode="&#x435;" horiz-adv-x="558" 
d="M534 257h-403q-4 -85 50 -140.5t162 -55.5q107 0 198 50l-66 -104q-70 -22 -153 -22q-134 0 -214.5 69t-80.5 194q0 113 72 185t194 72q67 0 117 -23.5t76 -61.5t37.5 -79t10.5 -84zM141 322h279q-5 49 -40.5 78t-91.5 29q-57 0 -96.5 -29t-50.5 -78z" />
    <glyph glyph-name="afii10072" unicode="&#x436;" horiz-adv-x="780" 
d="M458 256l110 126q42 48 42 70q0 17 -23 33h163l-191 -213q18 -15 38 -40l133 -159q35 -42 80 -73l-39 -1q-77 -2 -94.5 2t-42.5 35zM308 485h165q-35 -24 -35 -70v-345q0 -46 35 -70h-165q35 24 35 70v345q0 46 -35 70zM322 256l-176 -220q-25 -31 -42.5 -35t-94.5 -2
l-39 1q45 31 80 73l133 159q20 25 38 40l-191 213h163q-23 -16 -23 -33q0 -22 42 -70z" />
    <glyph glyph-name="afii10073" unicode="&#x437;" horiz-adv-x="438" 
d="M47 381l18 111q41 2 71.5 7.5t75.5 5.5q183 0 183 -120q0 -46 -33 -75t-78 -34v-3q57 0 96.5 -33.5t39.5 -93.5q0 -68 -61.5 -114.5t-182.5 -46.5q-40 0 -70 7t-45.5 14.5t-27 23.5t-14.5 23.5t-8 23.5l-16 50q70 -66 179 -66q79 0 110.5 27.5t31.5 64.5q0 33 -25 53.5
t-78 20.5q-41 0 -77 -19v92q19 -3 41 -3q114 0 114 69q0 28 -19.5 48.5t-68.5 20.5q-74 0 -156 -54z" />
    <glyph glyph-name="afii10074" unicode="&#x438;" horiz-adv-x="570" 
d="M158 111l232 347q11 18 25 27h125q-35 -24 -35 -70v-345q0 -46 35 -70h-165q35 24 35 70v304l-232 -347q-11 -18 -25 -27h-125q35 24 35 70v345q0 46 -35 70h165q-35 -24 -35 -70v-304z" />
    <glyph glyph-name="afii10075" unicode="&#x439;" horiz-adv-x="570" 
d="M158 111l232 347q11 18 25 27h125q-35 -24 -35 -70v-345q0 -46 35 -70h-165q35 24 35 70v304l-232 -347q-11 -18 -25 -27h-125q35 24 35 70v345q0 46 -35 70h165q-35 -24 -35 -70v-304zM132 700h88q-21 -31 2.5 -57t61.5 -26t61.5 26t2.5 57h88q2 -57 -40.5 -98.5
t-111.5 -41.5t-111.5 41.5t-40.5 98.5z" />
    <glyph glyph-name="afii10076" unicode="&#x43a;" horiz-adv-x="502" 
d="M30 485h165q-35 -24 -35 -70v-345q0 -46 35 -70h-165q35 24 35 70v345q0 46 -35 70zM180 256l110 126q42 48 42 70q0 17 -23 33h163l-191 -213q18 -15 38 -40l133 -159q35 -42 80 -73l-39 -1q-77 -2 -94.5 2t-42.5 35z" />
    <glyph glyph-name="afii10077" unicode="&#x43b;" horiz-adv-x="512" 
d="M447 415v-345q0 -46 35 -70h-165q35 24 35 70v345h-158v-61q0 -53 -2.5 -95.5t-12 -96.5t-25.5 -90t-47.5 -61.5t-74.5 -25.5q-20 0 -43 9l-11 98q30 -23 56 -23q84 0 84 302q0 19 -1 30t-5 29.5t-14.5 32t-27.5 22.5h412q-35 -24 -35 -70z" />
    <glyph glyph-name="afii10078" unicode="&#x43c;" horiz-adv-x="678" 
d="M37 485h164l144 -332l121 284q10 23 15 48h168q-37 -24 -35 -70l22 -345q4 -48 36 -70h-167q36 25 34 70l-18 334l-181 -419l-19 17q-19 16 -37 58l-147 344l-25 -334q-2 -45 34 -70h-140q16 10 26 30.5t12 39.5l28 345q4 42 -35 70z" />
    <glyph glyph-name="afii10079" unicode="&#x43d;" horiz-adv-x="562" 
d="M160 303h242v112q0 46 -35 70h165q-35 -24 -35 -70v-345q0 -46 35 -70h-165q35 24 35 70v163h-242v-163q0 -46 35 -70h-165q35 24 35 70v345q0 46 -35 70h165q-35 -24 -35 -70v-112z" />
    <glyph glyph-name="afii10080" unicode="&#x43e;" horiz-adv-x="610" 
d="M309 505q125 0 199.5 -77t74.5 -183q0 -113 -81.5 -186.5t-201.5 -73.5q-124 0 -198.5 77t-74.5 183q0 112 81 186t201 74zM303 429q-77 0 -124.5 -50.5t-47.5 -133.5q0 -76 46 -130t130 -54q77 0 124.5 50.5t47.5 133.5q0 76 -46 130t-130 54z" />
    <glyph glyph-name="afii10081" unicode="&#x43f;" horiz-adv-x="542" 
d="M30 485h482q-35 -24 -35 -70v-345q0 -46 35 -70h-165q35 24 35 70v345h-222v-345q0 -46 35 -70h-165q35 24 35 70v345q0 46 -35 70z" />
    <glyph glyph-name="afii10082" unicode="&#x440;" horiz-adv-x="612" 
d="M198 -221h-170q35 24 35 70v566q0 46 -35 70h73q30 0 53 16v-79q67 83 179 83q122 0 187 -70t65 -173q0 -117 -67.5 -197t-191.5 -80q-39 0 -81 11l-61 89q54 -24 120 -24q15 0 29.5 1.5t44 11.5t50 28.5t37 57t16.5 92.5q0 85 -49 128.5t-120 43.5q-67 0 -110.5 -35
t-43.5 -107v-433q0 -46 40 -70z" />
    <glyph glyph-name="afii10083" unicode="&#x441;" horiz-adv-x="508" 
d="M446 491v-110q-59 48 -133 48q-75 0 -128.5 -44.5t-53.5 -129.5q0 -87 57 -140.5t160 -53.5t165 46q-43 -82 -74 -102t-115 -20q-69 0 -125.5 15.5t-104.5 65.5q-67 69 -67 175q0 110 75 185q79 79 226 79q24 0 36.5 -1t17.5 -3t21 -4.5t43 -5.5z" />
    <glyph glyph-name="afii10084" unicode="&#x442;" horiz-adv-x="397" 
d="M243 415v-345q0 -46 35 -70h-165q35 24 35 70v345h-77q-60 0 -91 -38l32 116q17 -8 46 -8h311q25 0 48 8l-24 -111q-17 33 -66 33h-84z" />
    <glyph glyph-name="afii10085" unicode="&#x443;" horiz-adv-x="472" 
d="M-57 485l87 3q7 0 14.5 0.5t11.5 0.5h8.5h7t5.5 -0.5t5 -1t4 -1.5l4 -2l164 -370l107 260q15 39 15 63q0 35 -28 48h156l-237 -541q-13 -30 -27.5 -52.5t-39 -47.5t-61.5 -39t-83 -14q-71 0 -136 27l93 68q26 -19 60 -19q24 0 43.5 8t32.5 23.5t20 27.5t15 30l26 59
q-34 32 -53 72l-147 326q-26 58 -67 72z" />
    <glyph glyph-name="afii10086" unicode="&#x444;" horiz-adv-x="765" 
d="M300 700h77q30 0 53 16v-215q38 4 79.5 3t82.5 -19t73.5 -44.5t52.5 -73.5t20 -107q0 -65 -19.5 -117t-51 -82.5t-72 -50.5t-83 -22.5t-82.5 1.5v-140q0 -46 35 -70h-165q35 24 35 70v140q-28 -4 -43 -4q-117 0 -191 66t-74 179q0 125 73.5 200t191.5 75q15 0 43 -4v129
q0 46 -35 70zM335 61v368q-26 6 -51 6q-71 0 -112 -52.5t-41 -135.5q0 -94 53.5 -143t123.5 -49q9 0 27 6zM430 429v-368q26 -6 51 -6q71 0 112 52.5t41 135.5q0 100 -63.5 155.5t-140.5 30.5z" />
    <glyph glyph-name="afii10087" unicode="&#x445;" horiz-adv-x="507" 
d="M1 485l60 2q60 2 71.5 -1t29.5 -27l104 -138l81 94q17 19 17 36q0 21 -26 34h172l-199 -223l149 -194q35 -45 77 -68l-120 -2q-26 0 -42 22l-128 175l-106 -120q-23 -26 -23 -43q0 -21 22 -32h-170l231 256l-114 149q-42 55 -86 80z" />
    <glyph glyph-name="afii10088" unicode="&#x446;" horiz-adv-x="575" 
d="M30 485h165q-35 -24 -35 -70v-345h242v345q0 46 -35 70h165q-35 -24 -35 -70v-345h78v-205l-50 -28q3 97 -23 130t-70 33h-402q35 24 35 70v345q0 46 -35 70z" />
    <glyph glyph-name="afii10089" unicode="&#x447;" horiz-adv-x="516" 
d="M15 485h165q-35 -24 -35 -70v-61q0 -99 94 -99q66 0 117 32v128q0 46 -35 70h165q-35 -24 -35 -70v-345q0 -46 35 -70h-170q40 24 40 70v157q-70 -48 -151 -48q-42 0 -73.5 14t-46.5 32t-23.5 43t-10 39t-1.5 29v79q0 46 -35 70z" />
    <glyph glyph-name="afii10090" unicode="&#x448;" horiz-adv-x="779" 
d="M30 485h165q-35 -24 -35 -70v-345h182v345q0 46 -35 70h165q-35 -24 -35 -70v-345h182v345q0 46 -35 70h165q-35 -24 -35 -70v-345q0 -46 35 -70h-719q35 24 35 70v345q0 46 -35 70z" />
    <glyph glyph-name="afii10091" unicode="&#x449;" horiz-adv-x="792" 
d="M30 485h165q-35 -24 -35 -70v-345h182v345q0 46 -35 70h165q-35 -24 -35 -70v-345h182v345q0 46 -35 70h165q-35 -24 -35 -70v-345h78v-205l-50 -28q1 54 -7 89t-24.5 50t-31 19.5t-35.5 4.5h-614q35 24 35 70v345q0 46 -35 70z" />
    <glyph glyph-name="afii10092" unicode="&#x44a;" horiz-adv-x="538" 
d="M140 415h-88q-45 0 -72 -28l27 101q24 -3 45 -3h218q-35 -24 -35 -70v-338q35 -7 65 -7q65 0 92 30t27 71t-31 66t-91 25q-26 0 -53 -6l44 69q33 7 56 7q44 0 82.5 -13t67.5 -48.5t29 -89.5q0 -31 -9.5 -59.5t-32 -57.5t-69 -46.5t-112.5 -17.5h-195q35 24 35 70v345z
" />
    <glyph glyph-name="afii10093" unicode="&#x44b;" horiz-adv-x="686" 
d="M30 485h165q-35 -24 -35 -70v-338q35 -7 65 -7q65 0 92 30t27 71t-31 66t-91 25q-26 0 -53 -6l44 69q33 7 56 7q44 0 82.5 -13t67.5 -48.5t29 -89.5q0 -31 -9.5 -59.5t-32 -57.5t-69 -46.5t-112.5 -17.5h-195q35 24 35 70v345q0 46 -35 70zM491 485h165q-35 -24 -35 -70
v-345q0 -46 35 -70h-165q35 24 35 70v345q0 46 -35 70z" />
    <glyph glyph-name="afii10094" unicode="&#x44c;" horiz-adv-x="463" 
d="M30 485h165q-35 -24 -35 -70v-338q35 -7 65 -7q65 0 92 30t27 71t-31 66t-91 25q-26 0 -53 -6l44 69q33 7 56 7q44 0 82.5 -13t67.5 -48.5t29 -89.5q0 -31 -9.5 -59.5t-32 -57.5t-69 -46.5t-112.5 -17.5h-195q35 24 35 70v345q0 46 -35 70z" />
    <glyph glyph-name="afii10095" unicode="&#x44d;" horiz-adv-x="494" 
d="M193 297h166q-6 57 -49 97.5t-116 40.5q-83 0 -152 -54l18 111q32 2 68 7.5t79 5.5q118 0 189 -66.5t71 -173.5q0 -112 -79 -196t-217 -84q-49 0 -82 8t-49.5 25.5t-22 28t-11.5 30.5l-16 50q69 -66 178 -66q78 0 134.5 44.5t60.5 121.5h-130q-50 0 -76 -26v99
q17 -3 36 -3z" />
    <glyph glyph-name="afii10096" unicode="&#x44e;" horiz-adv-x="808" 
d="M160 303h92q19 85 89.5 143.5t178.5 58.5q113 0 187 -75t74 -185q0 -113 -78 -186.5t-198 -73.5q-107 0 -182 69t-78 179h-85v-163q0 -46 35 -70h-165q35 24 35 70v345q0 46 -35 70h165q-35 -24 -35 -70v-112zM511 429q-72 0 -117 -50.5t-45 -133.5q0 -76 43 -130
t123 -54q72 0 117 50.5t45 133.5q0 76 -43 130t-123 54z" />
    <glyph glyph-name="afii10097" unicode="&#x44f;" horiz-adv-x="470" 
d="M310 70v342q-53 5 -66 5q-32 0 -53 -8.5t-30 -23t-12 -25t-3 -22.5q0 -31 13.5 -53t35 -32t40.5 -13.5t38 -2.5q-52 -87 -90.5 -139.5t-66 -73t-40.5 -24.5t-35 -4q-29 0 -101 4q48 23 98.5 70t121.5 143q-48 8 -83 41t-35 87q0 146 199 146q10 0 30 -0.5t30 -0.5
q46 -1 139 -1q-35 -24 -35 -70v-345q0 -46 35 -70h-165q35 24 35 70z" />
    <glyph glyph-name="afii10071" unicode="&#x451;" horiz-adv-x="558" 
d="M534 257h-403q-4 -85 50 -140.5t162 -55.5q107 0 198 50l-66 -104q-70 -22 -153 -22q-134 0 -214.5 69t-80.5 194q0 113 72 185t194 72q67 0 117 -23.5t76 -61.5t37.5 -79t10.5 -84zM141 322h279q-5 49 -40.5 78t-91.5 29q-57 0 -96.5 -29t-50.5 -78zM125 619
q0 25 19.5 44.5t44.5 19.5t44.5 -19.5t19.5 -44.5t-19.5 -44.5t-44.5 -19.5t-44.5 19.5t-19.5 44.5zM315 619q0 25 19.5 44.5t44.5 19.5t44.5 -19.5t19.5 -44.5t-19.5 -44.5t-44.5 -19.5t-44.5 19.5t-19.5 44.5z" />
    <glyph glyph-name="afii10099" unicode="&#x452;" horiz-adv-x="557" 
d="M33 700h77q30 0 53 16v-99h224v-60h-224v-123q19 32 64.5 51.5t91.5 19.5q193 0 193 -319q0 -57 -2 -96.5t-9 -88.5t-22.5 -81.5t-40 -63t-64 -46.5t-92.5 -19q36 26 61.5 64t37.5 72.5t18.5 87t7.5 82.5t1 84q0 39 -1.5 65.5t-8 64.5t-18.5 61t-36 40t-57 17
q-17 0 -34 -3.5t-39.5 -13.5t-36.5 -35.5t-14 -62.5v-244q0 -46 35 -70h-165q35 24 35 70v487h-63v60h63v13q0 46 -35 70z" />
    <glyph glyph-name="afii10100" unicode="&#x453;" horiz-adv-x="357" 
d="M160 415v-345q0 -46 35 -70h-165q35 24 35 70v345q0 46 -35 70h296q9 0 42 3v-96q-15 23 -56 23h-152zM330 710l54 -77l-298 -83l-3 3z" />
    <glyph glyph-name="afii10101" unicode="&#x454;" horiz-adv-x="491" 
d="M444 491v-110q-58 48 -133 48q-68 0 -118.5 -36.5t-61.5 -95.5h169q20 0 36 3v-99q-26 26 -76 26h-129q7 -75 61.5 -120.5t138.5 -45.5q105 0 165 46q-30 -57 -50 -80t-49 -32.5t-88 -9.5q-67 0 -120.5 16.5t-98.5 67.5q-63 69 -63 171q0 109 73 185q46 47 99 63.5
t119 16.5q30 0 43.5 -1.5t33.5 -5.5t49 -7z" />
    <glyph glyph-name="afii10102" unicode="&#x455;" horiz-adv-x="430" 
d="M370 487v-89q-69 40 -141 40q-45 0 -66.5 -16.5t-21.5 -39.5q0 -14 8 -25.5t28.5 -22t36.5 -16.5t52 -18q27 -9 41 -14.5t39 -18.5t38.5 -27t24.5 -37t11 -51q0 -21 -5 -41.5t-20 -44t-38.5 -41t-65 -29t-95.5 -11.5q-76 0 -153 29l-38 105q106 -67 191 -67
q60 0 92.5 20.5t32.5 51.5q0 16 -7 29t-25 24t-28 16t-37.5 15t-32.5 12q-78 30 -113.5 60t-35.5 83q0 26 9 49.5t29.5 45t61 34.5t97.5 13q71 0 131 -18z" />
    <glyph glyph-name="afii10103" unicode="&#x456;" horiz-adv-x="218" 
d="M30 485h77q30 0 53 16v-431q0 -46 35 -70h-165q35 24 35 70v345q0 46 -35 70zM43 619q0 25 19.5 44.5t44.5 19.5t44.5 -19.5t19.5 -44.5t-19.5 -44.5t-44.5 -19.5t-44.5 19.5t-19.5 44.5z" />
    <glyph glyph-name="afii10104" unicode="&#x457;" horiz-adv-x="251" 
d="M43 485h77q30 0 53 16v-431q0 -46 35 -70h-165q35 24 35 70v345q0 46 -35 70zM5 619q0 27 15.5 45.5t39.5 18.5t39.5 -18.5t15.5 -45.5t-15.5 -45.5t-39.5 -18.5t-39.5 18.5t-15.5 45.5zM136 619q0 27 15.5 45.5t39.5 18.5t39.5 -18.5t15.5 -45.5t-15.5 -45.5
t-39.5 -18.5t-39.5 18.5t-15.5 45.5z" />
    <glyph glyph-name="afii10105" unicode="&#x458;" horiz-adv-x="220" 
d="M34 485h77q30 0 53 16v-510v-14.5v-17t-0.5 -16t-2 -18.5l-3.5 -16.5t-5 -18t-8 -15.5q-22 -36 -75.5 -58t-109.5 -26q66 34 87.5 85t21.5 120v419q0 46 -35 70zM47 619q0 25 19.5 44.5t44.5 19.5t44.5 -19.5t19.5 -44.5t-19.5 -44.5t-44.5 -19.5t-44.5 19.5t-19.5 44.5z
" />
    <glyph glyph-name="afii10106" unicode="&#x459;" horiz-adv-x="750" 
d="M447 415v-338q35 -7 65 -7q65 0 92 30t27 71t-31 66t-91 25q-26 0 -53 -6l44 69q33 7 56 7q44 0 82.5 -13t67.5 -48.5t29 -89.5q0 -31 -9.5 -59.5t-32 -57.5t-69 -46.5t-112.5 -17.5h-195q35 24 35 70v345h-158v-61q0 -53 -2.5 -95.5t-12 -96.5t-25.5 -90t-47.5 -61.5
t-74.5 -25.5q-20 0 -43 9l-11 98q30 -23 56 -23q84 0 84 302q0 19 -1 30t-5 29.5t-14.5 32t-27.5 22.5h412q-35 -24 -35 -70z" />
    <glyph glyph-name="afii10107" unicode="&#x45a;" horiz-adv-x="815" 
d="M160 303h242v112q0 46 -35 70h165q-35 -24 -35 -70v-338q35 -7 65 -7q65 0 92 30t27 71t-31 66t-91 25q-26 0 -53 -6l44 69q33 7 56 7q44 0 82.5 -13t67.5 -48.5t29 -89.5q0 -31 -9.5 -59.5t-32 -57.5t-69 -46.5t-112.5 -17.5h-195q35 24 35 70v163h-242v-163
q0 -46 35 -70h-165q35 24 35 70v345q0 46 -35 70h165q-35 -24 -35 -70v-112z" />
    <glyph glyph-name="afii10108" unicode="&#x45b;" horiz-adv-x="565" 
d="M33 700h77q30 0 53 16v-99h224v-60h-224v-123q19 33 64 52t92 19q79 0 132 -39.5t53 -118.5v-277q0 -46 35 -70h-165q35 24 35 70v250q0 50 -33 79.5t-89 29.5q-124 0 -124 -115v-244q0 -46 35 -70h-165q35 24 35 70v487h-63v60h63v13q0 46 -35 70z" />
    <glyph glyph-name="afii10109" unicode="&#x45c;" horiz-adv-x="502" 
d="M30 485h165q-35 -24 -35 -70v-345q0 -46 35 -70h-165q35 24 35 70v345q0 46 -35 70zM180 256l110 126q42 48 42 70q0 17 -23 33h163l-191 -213q18 -15 38 -40l133 -159q35 -42 80 -73l-39 -1q-77 -2 -94.5 2t-42.5 35zM347 710l54 -77l-298 -83l-3 3z" />
    <glyph glyph-name="afii10110" unicode="&#x45e;" horiz-adv-x="472" 
d="M-57 485l87 3q7 0 14.5 0.5t11.5 0.5h8.5h7t5.5 -0.5t5 -1t4 -1.5l4 -2l164 -370l107 260q15 39 15 63q0 35 -28 48h156l-237 -541q-13 -30 -27.5 -52.5t-39 -47.5t-61.5 -39t-83 -14q-71 0 -136 27l93 68q26 -19 60 -19q24 0 43.5 8t32.5 23.5t20 27.5t15 30l26 59
q-34 32 -53 72l-147 326q-26 58 -67 72zM93 700h88q-21 -31 2.5 -57t61.5 -26t61.5 26t2.5 57h88q2 -57 -40.5 -98.5t-111.5 -41.5t-111.5 41.5t-40.5 98.5z" />
    <glyph glyph-name="afii10193" unicode="&#x45f;" horiz-adv-x="559" 
d="M529 0h-202v-90q0 -46 35 -70h-165q35 24 35 70v90h-202q35 24 35 70v345q0 46 -35 70h165q-35 -24 -35 -70v-345h239v345q0 46 -35 70h165q-35 -24 -35 -70v-345q0 -46 35 -70z" />
    <glyph glyph-name="afii10050" unicode="&#x490;" horiz-adv-x="458" 
d="M43 700h285q63 0 93.5 7.5t49.5 33.5v-139q-43 18 -143 18q-28 0 -81 -1t-56 -1v-518q0 -68 51 -100h-199q46 32 46 100v500q0 68 -46 100z" />
    <glyph glyph-name="afii10098" unicode="&#x491;" horiz-adv-x="333" 
d="M160 415v-345q0 -46 35 -70h-165q35 24 35 70v345q0 46 -35 70h257q40 0 56 23v-106q-16 13 -56 13h-127z" />
    <glyph glyph-name="endash" unicode="&#x2013;" horiz-adv-x="638" 
d="M477 274h-313q-61 0 -124 -27l51 68q18 24 30 28.5t41 4.5h312q36 0 59 4.5t65 22.5l-50 -68q-16 -22 -29 -27.5t-42 -5.5z" />
    <glyph glyph-name="emdash" unicode="&#x2014;" horiz-adv-x="994" 
d="M753 274h-509q-61 0 -124 -27l51 68q18 24 30 28.5t41 4.5h508q36 0 59 4.5t65 22.5l-50 -68q-16 -22 -29 -27.5t-42 -5.5z" />
    <glyph glyph-name="quoteleft" unicode="&#x2018;" horiz-adv-x="210" 
d="M129 812h41q-64 -64 -64 -99q0 -8 2 -10t8 -3q26 -3 38.5 -19.5t12.5 -35.5q0 -24 -15 -42t-46 -18q-26 0 -46 16.5t-20 50.5q0 41 26.5 84.5t62.5 75.5z" />
    <glyph glyph-name="quoteright" unicode="&#x2019;" horiz-adv-x="210" 
d="M81 488h-41q8 8 19.5 21t28 38t16.5 40q0 8 -2 10t-8 3q-26 3 -38.5 19.5t-12.5 35.5q0 24 15 42t46 18q26 0 46 -16.5t20 -50.5q0 -41 -26.5 -84.5t-62.5 -75.5z" />
    <glyph glyph-name="quotesinglbase" unicode="&#x201a;" horiz-adv-x="223" 
d="M92 -110h-52q21 21 45.5 54.5t24.5 48.5q0 7 -7 9q-54 11 -54 62q0 28 18.5 44.5t46.5 16.5q32 0 50.5 -21t18.5 -54q0 -45 -28 -87.5t-63 -72.5z" />
    <glyph glyph-name="quotedblleft" unicode="&#x201c;" horiz-adv-x="400" 
d="M129 812h41q-64 -64 -64 -99q0 -8 2 -10t8 -3q26 -3 38.5 -19.5t12.5 -35.5q0 -24 -15 -42t-46 -18q-26 0 -46 16.5t-20 50.5q0 41 26.5 84.5t62.5 75.5zM319 812h41q-64 -64 -64 -99q0 -8 2 -10t8 -3q26 -3 38.5 -19.5t12.5 -35.5q0 -24 -15 -42t-46 -18q-26 0 -46 16.5
t-20 50.5q0 41 26.5 84.5t62.5 75.5z" />
    <glyph glyph-name="quotedblright" unicode="&#x201d;" horiz-adv-x="400" 
d="M81 585h-41q8 8 19.5 21t28 38t16.5 40q0 8 -2 10t-8 3q-26 3 -38.5 19.5t-12.5 35.5q0 24 15 42t46 18q26 0 46 -16.5t20 -50.5q0 -41 -26.5 -84.5t-62.5 -75.5zM271 585h-41q8 8 19.5 21t28 38t16.5 40q0 8 -2 10t-8 3q-26 3 -38.5 19.5t-12.5 35.5q0 24 15 42t46 18
q26 0 46 -16.5t20 -50.5q0 -41 -26.5 -84.5t-62.5 -75.5z" />
    <glyph glyph-name="quotedblbase" unicode="&#x201e;" horiz-adv-x="400" 
d="M81 -112h-41q8 8 19.5 21t28 38t16.5 40q0 8 -2 10t-8 3q-26 3 -38.5 19.5t-12.5 35.5q0 24 15 42t46 18q26 0 46 -16.5t20 -50.5q0 -41 -26.5 -84.5t-62.5 -75.5zM271 -112h-41q8 8 19.5 21t28 38t16.5 40q0 8 -2 10t-8 3q-26 3 -38.5 19.5t-12.5 35.5q0 24 15 42t46 18
q26 0 46 -16.5t20 -50.5q0 -41 -26.5 -84.5t-62.5 -75.5z" />
    <glyph glyph-name="dagger" unicode="&#x2020;" horiz-adv-x="582" 
d="M194 700h194q-21 -15 -32 -35t-12.5 -32.5t-1.5 -32.5v-134h97q51 0 80 24q8 6 20 22v-172q-15 21 -35 32t-32.5 12.5t-32.5 1.5h-97v-495q0 -20 1.5 -32.5t12.5 -32.5t32 -35h-194q21 15 32 35t12.5 32.5t1.5 32.5v495h-97q-20 0 -32.5 -1.5t-32.5 -12.5t-35 -32v172
q12 -16 20 -22q29 -24 80 -24h97v134q0 20 -1.5 32.5t-12.5 32.5t-32 35z" />
    <glyph glyph-name="daggerdbl" unicode="&#x2021;" horiz-adv-x="582" 
d="M194 700h194q-21 -15 -32 -35t-12.5 -32.5t-1.5 -32.5v-134h97q51 0 80 24q8 6 20 22v-172q-15 21 -35 32t-32.5 12.5t-32.5 1.5h-97v-160h97q20 0 32.5 1.5t32.5 12.5t35 32v-172q-15 21 -35 32t-32.5 12.5t-32.5 1.5h-97v-255q0 -20 1.5 -32.5t12.5 -32.5t32 -35h-194
q21 15 32 35t12.5 32.5t1.5 32.5v255h-97q-20 0 -32.5 -1.5t-32.5 -12.5t-35 -32v172q15 -21 35 -32t32.5 -12.5t32.5 -1.5h97v160h-97q-20 0 -32.5 -1.5t-32.5 -12.5t-35 -32v172q12 -16 20 -22q29 -24 80 -24h97v134q0 20 -1.5 32.5t-12.5 32.5t-32 35z" />
    <glyph glyph-name="bullet" unicode="&#x2022;" horiz-adv-x="468" 
d="M100 280q0 56 39 95t95 39t95 -39t39 -95t-39 -95t-95 -39t-95 39t-39 95z" />
    <glyph glyph-name="ellipsis" unicode="&#x2026;" horiz-adv-x="776" 
d="M40 51q0 27 19.5 46.5t46.5 19.5t46.5 -19.5t19.5 -46.5t-19.5 -46.5t-46.5 -19.5t-46.5 19.5t-19.5 46.5zM322 51q0 27 19.5 46.5t46.5 19.5t46.5 -19.5t19.5 -46.5t-19.5 -46.5t-46.5 -19.5t-46.5 19.5t-19.5 46.5zM604 51q0 27 19.5 46.5t46.5 19.5t46.5 -19.5
t19.5 -46.5t-19.5 -46.5t-46.5 -19.5t-46.5 19.5t-19.5 46.5z" />
    <glyph glyph-name="perthousand" unicode="&#x2030;" horiz-adv-x="1033" 
d="M477 700h60l-327 -700h-60zM188 700q71 0 110 -48t39 -116q0 -64 -38 -112.5t-109 -48.5q-68 0 -109 44t-41 115q0 74 41 120t107 46zM187 645q-67 0 -67 -110q0 -44 16.5 -74.5t53.5 -30.5t52 31.5t15 72.5q0 44 -15.5 77.5t-54.5 33.5zM505 325q71 0 110 -48t39 -116
q0 -64 -38 -112.5t-109 -48.5q-68 0 -109 44t-41 115q0 74 41 120t107 46zM504 270q-67 0 -67 -110q0 -44 16.5 -74.5t53.5 -30.5t52 31.5t15 72.5q0 44 -15.5 77.5t-54.5 33.5zM844 325q71 0 110 -48t39 -116q0 -64 -38 -112.5t-109 -48.5q-68 0 -109 44t-41 115
q0 74 41 120t107 46zM843 270q-67 0 -67 -110q0 -44 16.5 -74.5t53.5 -30.5t52 31.5t15 72.5q0 44 -15.5 77.5t-54.5 33.5z" />
    <glyph glyph-name="guilsinglleft" unicode="&#x2039;" horiz-adv-x="232" 
d="M126 263l66 -181h-35l-117 181l117 181h35z" />
    <glyph glyph-name="guilsinglright" unicode="&#x203a;" horiz-adv-x="232" 
d="M106 263l-66 181h35l117 -181l-117 -181h-35z" />
    <glyph glyph-name="Euro" unicode="&#x20ac;" 
d="M588 562h-22q-17 110 -154 110q-97 0 -142.5 -64.5t-58.5 -184.5h314l-18 -42h-299q0 -4 -0.5 -15.5t-0.5 -16.5q0 -25 1 -33h269l-19 -41h-248q10 -118 62 -182.5t141 -64.5q59 0 101 27t52 85h22l-7 -90q-57 -64 -190 -64q-261 0 -291 289h-77l18 41h52q-1 9 -1 34
q0 4 0.5 15.5t0.5 15.5h-70l18 42h56q18 142 86.5 217t207.5 75q134 0 190 -60z" />
    <glyph glyph-name="afii61352" unicode="&#x2116;" horiz-adv-x="1192" 
d="M40 700h149q10 -21 15 -26l409 -510v436q0 20 -1.5 32.5t-12.5 32.5t-32 35h170q-21 -15 -32 -35t-12.5 -32.5t-1.5 -32.5v-628q-38 11 -70.5 33.5t-46 38l-39.5 47.5l-371 464v-455q0 -20 1.5 -32.5t12.5 -32.5t32 -35h-170q21 15 32 35t12.5 32.5t1.5 32.5v500
q0 20 -1.5 32.5t-12.5 32.5t-32 35zM942 225q-75 0 -128 54t-53 130q0 77 53 131t128 54q74 0 127 -54t53 -131t-53 -130.5t-127 -53.5zM940 287q41 0 72.5 28t31.5 95q0 59 -29.5 90.5t-74.5 31.5q-48 0 -74.5 -34t-26.5 -88q0 -52 26 -87.5t75 -35.5zM771 82v74h341v-74
h-341z" />
    <glyph glyph-name="trademark" unicode="&#x2122;" horiz-adv-x="718" 
d="M183 656v-224q0 -34 29 -48h-110q26 17 26 48v224h-47q-35 0 -56 -34l24 80q11 -1 20 -1.5t12 -0.5h170q19 0 33 2l-20 -69q-8 23 -37 23h-44zM299 700h91l85 -221l77 187q10 27 11 34h89q-23 -20 -19 -49l29 -222q4 -32 31 -45h-112q20 13 24 31t-1 28l-22 185
l-102 -252l-18 14q-14 11 -24 39l-79 200l-26 -191q-6 -39 22 -54h-98q26 22 30 55l31 211q6 38 -19 50z" />
    <glyph glyph-name="hyphenminus" horiz-adv-x="425" 
d="M40 225l58 80q8 11 24 11h263l-58 -80q-8 -11 -24 -11h-263z" />
    <glyph glyph-name="accent" horiz-adv-x="2" 
d="M-153 710l54 -77l-298 -83l-3 3z" />
    <glyph glyph-name="Accent" horiz-adv-x="2" 
d="M-232 917l61 -87l-307 -86l-10 10z" />
    </font>
</defs>
</svg>
