<svg xmlns="http://www.w3.org/2000/svg" viewBox="0 0 11.1 11.1"><path fill="#C40009" d="M11.1 5.5c0 3.1-2.5 5.5-5.5 5.5C2.5 11.1 0 8.6 0 5.5 0 2.5 2.5 0 5.5 0c3.1 0 5.6 2.5 5.6 5.5"/><path fill="#FFF" d="M8.1 6.8c0-.2-.1-.3-.2-.3s-.2.1-.2.3V7h.4v-.2zm-1.7-.4c-.1 0-.1 0-.2.1v1.4c0 .1.1.1.2.1s.2-.1.2-.3v-1c-.1-.2-.1-.3-.2-.3M3.6 2c.1.4.2.7.3 1v1.2h.5V2.9l.5-1.8h-.4l-.3 1.2-.4-1.2h-.4l.1.4c0 .1.1.2.1.5m3.2 2.2c.1 0 .3-.1.5-.3v.2h.4V1.9h-.5v1.7c-.1.2-.1.2-.2.2s-.1 0-.1-.1V1.9h-.4V4c.1.1.1.2.3.2m2.1 1.1c0-.2-.1-.3-.3-.4-.1-.2-.3-.2-.5-.2-.5-.1-1.4-.1-2.5-.1s-1.9 0-2.5.1c-.2 0-.3.1-.5.2-.1.1-.2.2-.2.4-.1.4-.1.9-.1 1.6 0 .7 0 1.2.1 1.6 0 .2.1.3.3.4.1.1.2.2.4.2.6.1 1.4.1 2.5.1s2 0 2.5-.1c.2 0 .3-.1.5-.2.1-.1.2-.3.3-.4 0-.4.1-.9.1-1.6 0-.7-.1-1.3-.1-1.6m-4.7.5h-.5v2.6h-.4V5.8h-.5v-.5h1.4v.5zm1.2 2.5H5v-.2c-.2.2-.3.3-.5.3-.1 0-.2-.1-.3-.2V6.1h.4v1.8l.1.1c.1 0 .2-.1.3-.2V6.1h.4v2.2zm1.5-.6v.4c0 .2-.2.3-.3.3-.1 0-.3-.1-.4-.2v.2h-.4v-3h.4v1c.1-.2.3-.2.4-.2.2 0 .3.1.3.3v1.2zm1.6-.1v.3c0 .1 0 .2-.1.2-.1.2-.3.3-.5.3s-.4-.1-.5-.2c-.1-.2-.1-.3-.1-.6v-.8c0-.2 0-.4.1-.5.1-.2.3-.2.5-.2s.4.1.5.2c.1.1.1.3.1.5v.5h-.8v.4c0 .2 0 .3.2.3.1 0 .1 0 .2-.2v-.2h.4zm-3-3.4c.2 0 .4-.1.5-.2.1-.1.1-.3.1-.5v-.9c0-.2 0-.4-.1-.5-.1-.1-.3-.2-.5-.2s-.3.1-.4.2c-.1.1-.2.3-.2.5v.8c0 .2 0 .4.1.5.2.2.3.3.5.3m-.2-1.6c0-.2.1-.3.2-.3s.2.1.2.3v.9c0 .2-.1.3-.2.3s-.2-.1-.2-.3v-.9z"/></svg>