<svg xmlns="http://www.w3.org/2000/svg" viewBox="0 0 11 11.3"><path fill="#5F749D" d="M11 5.6c0 3-2.5 5.5-5.5 5.5S0 8.6 0 5.6 2.5.1 5.5.1 11 2.6 11 5.6"/><path fill="#FFF" d="M5.3 8h.4s.1 0 .2-.1c.1 0 .1-.1.1-.1s0-.6.3-.7c.3-.1.6.6 1 .8.2.2.4.1.4.1h1s.5 0 .3-.4c0 0-.1-.3-.7-.8-.7-.6-.6-.5.1-1.5.4-.6.6-.9.6-1.1-.1-.1-.4-.1-.4-.1H7.4c-.1 0-.1.1-.1.1s-.2.5-.4.9c-.5.8-.7.9-.8.8-.2-.1-.1-.5-.1-.7 0-.8.1-1.1-.3-1.2-.1 0-.2 0-.5-.1-.4 0-.7 0-.9.1-.1.1-.2.2-.1.2s.2 0 .3.2c.1.2.1.5.1.5s.1.9-.1 1c-.2.1-.4-.1-.8-.8-.3-.4-.4-.8-.4-.8s0-.1-.1-.1c-.1-.1-.2-.1-.2-.1H2s-.2 0-.2.1v.2s.8 1.9 1.7 2.8c.8.9 1.8.8 1.8.8"/></svg>