<svg version="1.1" id="Слой_1" xmlns="http://www.w3.org/2000/svg" x="0" y="0" viewBox="0 0 509.1 280.7" xml:space="preserve"><style>.st0{fill:#fff}</style><path class="st0" d="M16.2 193.6l8 22.3h-16l8-22.3zm-3-3L0 226.8h4.4l2.9-7.5h18.3l2.7 7.5h4.3l-13.5-36.3h-5.9zm52.2 36.2h-4v-32.6H43.8v22c0 3.6-.5 6.2-1.6 8-1 1.7-2.8 2.6-5.3 2.6h-2.6v-3.6h1c1.1 0 2-.2 2.6-.5.6-.3 1.1-.9 1.4-1.9.3-.9.4-2.3.4-4.2v-26h25.6v36.2zm10.9-20.3h18.4v3.6H76.3v13.1h19.2v3.6H72.3v-36.2h23.3v3.6H76.3zm29-15.9v15.8h3.6l14.8-15.8h5.4l-16.7 17.5 18.6 18.7h-5.5L108.9 210h-3.6v16.8h-4v-36.2zm53.2 24.1h3.9c0 3.2-.4 5.7-1.2 7.5-.8 1.8-2.3 3.1-4.3 3.8-2.1.8-5 1.2-8.8 1.2-2.9 0-5.2-.3-7-.8-1.8-.5-3.2-1.4-4.3-2.7-1.1-1.3-1.9-3.1-2.4-5.5s-.7-5.5-.7-9.4c0-3.9.2-7 .7-9.4.5-2.4 1.3-4.3 2.4-5.6 1.1-1.3 2.6-2.3 4.4-2.8 1.8-.5 4.1-.8 7-.8 2.9 0 5.2.2 7 .7 1.8.5 3.2 1.2 4.1 2.1 1 1 1.6 2.2 2 3.6.4 1.4.7 3.3.8 5.5h-3.9c-.3-2.4-.6-4.1-1.1-5.2-.5-1.1-1.4-1.9-2.7-2.4s-3.4-.7-6.2-.7c-2.1 0-3.9.2-5.2.6-1.3.4-2.3 1.2-3.1 2.2-.8 1.1-1.3 2.6-1.6 4.5-.3 1.9-.5 4.5-.5 7.7s.2 5.8.5 7.7c.3 1.9.9 3.4 1.6 4.4.8 1.1 1.8 1.8 3.1 2.2 1.3.4 3 .6 5.2.6s4-.1 5.3-.4c1.3-.3 2.4-.7 3.1-1.4.7-.7 1.3-1.5 1.6-2.7.2-1.1.3-2.6.3-4.5m6.4 12.1l13.2-36.3h5.9l13.5 36.3h-4.3l-2.7-7.5h-18.3l-2.9 7.5h-4.4zm24.3-10.9l-8-22.3-8 22.3h16zm16.8-9.3h21.2v-16h4v36.2h-4v-16.7H206v16.7h-4v-36.2h4zm32.5 16.7c.9-1.4 1.6-2.8 2.2-4.2.5-1.4.9-3 1.2-4.6.2-1.6.3-3.3.3-5.2v-18.7h24.6v32.7h2.6v11.9h-3.7v-8.3H240v8.3h-3.7v-11.9h2.2zm24.4-29.1h-16.7v14.5c0 1.9-.1 3.5-.2 4.9-.1 1.4-.3 2.6-.5 3.7s-.6 2.1-1 3.1-.9 1.9-1.4 2.9h19.7v-29.1zm15.3 18.5v14.2h-4v-36.3h17.3c2.2 0 4 .4 5.4 1.1 1.4.7 2.5 1.9 3.2 3.4.7 1.5 1.1 3.5 1.1 5.9 0 2.9-.4 5.2-1.2 6.9-.8 1.7-2.1 2.9-3.8 3.6-1.8.7-4.1 1.1-7.1 1.1h-10.9zm0-3.6h9.6c2.4 0 4.2-.2 5.4-.5 1.3-.3 2.2-1 2.8-2.1.6-1 .9-2.6.9-4.8 0-2.8-.4-4.8-1.3-5.9-.9-1.1-2.5-1.7-4.8-1.7h-12.7v15zm27.6-9.9c.5-2.4 1.2-4.2 2.4-5.5 1.1-1.3 2.6-2.2 4.5-2.7s4.5-.8 7.7-.8 5.7.3 7.6.8c1.9.5 3.4 1.4 4.5 2.7 1.1 1.3 1.9 3.1 2.3 5.5s.7 5.6.7 9.5c0 4-.2 7.1-.7 9.5-.5 2.4-1.2 4.2-2.3 5.5-1.1 1.3-2.6 2.2-4.5 2.7s-4.5.8-7.7.8-5.7-.3-7.6-.8c-1.9-.5-3.4-1.4-4.5-2.7-1.1-1.3-1.9-3.1-2.4-5.5s-.7-5.5-.7-9.5.2-7.1.7-9.5m3.8 17.5c.3 1.9.8 3.3 1.5 4.3s1.8 1.7 3.3 2.1c1.4.4 3.4.6 6 .6s4.6-.2 6-.6c1.4-.4 2.5-1.1 3.2-2.1.7-1 1.2-2.5 1.5-4.3.3-1.8.4-4.5.4-8s-.1-6.2-.4-8c-.2-1.9-.7-3.3-1.5-4.3-.7-1-1.8-1.7-3.2-2.1-1.4-.4-3.4-.6-6.1-.6-2.6 0-4.7.2-6.1.6-1.4.4-2.5 1.1-3.2 2.1-.7 1-1.2 2.5-1.5 4.3-.2 1.9-.4 4.5-.4 8 .1 3.5.2 6.1.5 8m49.8 10.1h-18.5v-36.3h17.5c3.2 0 5.5.7 7 2.1 1.5 1.4 2.2 3.7 2.2 6.9 0 1.5-.1 2.8-.3 3.8-.2 1-.6 1.9-1.3 2.6-.7.8-1.6 1.4-3 1.8 1.6.4 2.7 1 3.6 1.7.8.7 1.4 1.6 1.6 2.7.3 1.1.4 2.5.4 4.2 0 3.4-.7 6-2.1 7.8-1.4 1.9-3.8 2.7-7.1 2.7m-14.5-32.6v12.2h11.5c1.8 0 3.2-.2 4.2-.6 1-.4 1.7-1 2.2-2 .4-.9.7-2.3.7-4 0-2.2-.4-3.7-1.2-4.5-.8-.8-2.3-1.2-4.4-1.2h-13zm0 15.7v13.3h11.2c1.7 0 3.1-.1 4.1-.2 1-.1 1.8-.4 2.5-.9.7-.4 1.1-1.1 1.4-2 .3-.9.4-2 .4-3.5 0-2-.2-3.4-.6-4.4-.4-.9-1-1.6-2-1.9-.9-.3-2.3-.5-4.2-.5h-12.8zm53 4.8h3.9c0 3.2-.4 5.7-1.2 7.5-.8 1.8-2.3 3.1-4.3 3.8-2.1.8-5 1.2-8.8 1.2-2.9 0-5.2-.3-7-.8-1.8-.5-3.2-1.4-4.3-2.7-1.1-1.3-1.9-3.1-2.4-5.5s-.7-5.5-.7-9.4c0-3.9.2-7 .7-9.4.5-2.4 1.3-4.3 2.4-5.6 1.1-1.3 2.6-2.3 4.4-2.8 1.8-.5 4.1-.8 7-.8 2.9 0 5.2.2 7 .7 1.8.5 3.2 1.2 4.1 2.1 1 1 1.6 2.2 2 3.6.4 1.4.7 3.3.8 5.5h-3.9c-.3-2.4-.6-4.1-1.1-5.2-.5-1.1-1.4-1.9-2.7-2.4-1.3-.5-3.4-.7-6.2-.7-2.1 0-3.9.2-5.2.6-1.3.4-2.3 1.2-3.1 2.2-.8 1.1-1.3 2.6-1.6 4.5-.3 1.9-.5 4.5-.5 7.7s.2 5.8.5 7.7c.3 1.9.9 3.4 1.6 4.4.8 1.1 1.8 1.8 3.1 2.2 1.3.4 3 .6 5.2.6s4-.1 5.3-.4c1.3-.3 2.4-.7 3.1-1.4.7-.7 1.3-1.5 1.6-2.7.1-1.1.3-2.6.3-4.5m12.7-24.1v15.8h3.6l14.8-15.8h5.4l-16.7 17.5 18.6 18.7h-5.5L414.2 210h-3.6v16.8h-4v-36.2zm29.6 0h4v33.5l20.6-33.5h6.5v36.2h-4v-33.1l-20.7 33.1h-6.4zm37.9 0h4V224l20.6-33.4h6.4v36.3h-4v-33.2l-20.7 33.2H478v-36.3zm19.6-6.5c0 .9-.2 1.5-.6 1.9-.4.4-.9.6-1.5.7-.6.1-1.5.1-2.6.1s-2 0-2.6-.1c-.6-.1-1.1-.3-1.5-.8-.4-.4-.6-1.1-.6-1.9h-2.8c0 1.5.2 2.6.7 3.4.5.8 1.3 1.3 2.3 1.7 1.1.3 2.5.5 4.3.5 2 0 3.5-.2 4.5-.5 1.1-.3 1.8-.8 2.3-1.6.5-.8.7-1.9.7-3.4h-2.6zm-359.1 96.4h-1.7l7.6-8.4-7.1-7.9h1.7l7.1 7.9-7.6 8.4zm8.1-16.3h1.4v16.3h-1.4v-16.3zm1.9 7.9l7.1-7.9h1.7l-7.1 7.9 7.6 8.4h-1.7l-7.6-8.4zm13.3 8.4v-16.3h1.4v14l9.4-14h1.3v16.3h-1.4v-13.9l-9.4 13.9zm30.1 0h-1.4v-15.1h-7.7v1c0 13.1-.8 14.3-4.8 14.3h-.2v-1.2h.2c2.5 0 3.4-.6 3.4-13.1v-2.2H192v16.3zm11.7.2c-3.5 0-6.1-1.8-6.1-4.3v-8c0-2.5 2.5-4.3 6.1-4.3 3.5 0 6 1.8 6 4.3v8c0 2.5-2.5 4.3-6 4.3m4.6-12.4c0-1.8-1.9-3.1-4.6-3.1s-4.6 1.3-4.6 3.1v8.1c0 1.8 1.9 3.1 4.6 3.1s4.6-1.3 4.6-3.1v-8.1zm7 12.2v-16.3h1.4v13.9l9.4-13.9h1.3v16.3H226v-13.9l-9.4 13.9h-1.3zm9.8-20.5v.4c0 1.3-1.5 2.3-3.5 2.3-2.1 0-3.5-1-3.5-2.3v-.4h1.1v.5c0 .7 1 1.3 2.4 1.3s2.4-.6 2.4-1.3v-.5h1.1zm15.1 4.2h1.4v16.3h-1.4v-16.3zm2.1 7.9l7.4-7.9h1.7l-7.4 7.9 7.9 8.4h-1.7l-7.9-8.4zm19 8.6c-3.5 0-6.1-1.8-6.1-4.3v-8c0-2.5 2.5-4.3 6.1-4.3 3.5 0 6 1.8 6 4.3v8c.1 2.5-2.4 4.3-6 4.3m4.7-12.4c0-1.8-1.9-3.1-4.6-3.1-2.7 0-4.6 1.3-4.6 3.1v8.1c0 1.8 1.9 3.1 4.6 3.1 2.7 0 4.6-1.3 4.6-3.1v-8.1zm7 12.2v-16.3h1.2l6.1 11.2 6.2-11.2h1.3v16.3h-1.4v-13.4l-5.6 10.3h-.9l-5.5-10.3v13.4zm20.6 0v-16.3h12.1v16.3h-1.4v-15.1H295v15.1zm30.1 0h-1.4v-15.1h-7.7v1c0 13.1-.8 14.3-4.8 14.3h-.2v-1.2h.2c2.5 0 3.4-.6 3.4-13.1v-2.2h10.5v16.3zm15.9 0h-10v-16.3h10v1.2H331v6.4h7.8v1.2H331v6.3h8.6zm4.8-16.3h1.4v16.3h-1.4v-16.3zm2.1 7.9l7.4-7.9h1.7l-7.4 7.9 7.9 8.4h-1.7l-7.9-8.4zm25.1 3.5v.7c0 2.5-2.5 4.3-6 4.3s-6.1-1.8-6.1-4.3v-8c0-2.5 2.5-4.3 6.1-4.3 3.5 0 6 1.8 6 4.3v.8h-1.4v-.8c0-1.8-1.9-3.1-4.6-3.1s-4.6 1.3-4.6 3.1v8.1c0 1.8 1.9 3.1 4.6 3.1s4.6-1.3 4.6-3.1v-.8h1.4zm-127.4-25.5H3.3c-.8 0-1.4-.6-1.4-1.4 0-.8.6-1.4 1.4-1.4h240.8c.8 0 1.4.6 1.4 1.4.1.7-.5 1.4-1.3 1.4m263.4 0H266.8c-.8 0-1.4-.6-1.4-1.4 0-.8.6-1.4 1.4-1.4h240.8c.8 0 1.4.6 1.4 1.4.1.7-.6 1.4-1.4 1.4"/><path transform="rotate(-45.001 255.834 248.665)" class="st0" d="M251 243.8h9.7v9.7H251z"/><path class="st0" d="M202.5 156h2l15.5-31.7h-2L202.5 156zm80.5-31.8l15.5 31.7h2L285 124.2h-2zm11.6 0l15.5 31.7h4.1l-15.5-31.7h-4.1zM251.5 0l-54.6 111.7h91.5l2.2 4.5-82.2-.1-19.5 39.9h4.1l17.7-36.1h81.8v.1h4.1l-4-8.2h7.5l21.6 44.3h6.1L251.5 0zm38.4 106.2l-38.3-78.4-36.2 74h4.1l32.1-65.6 34.2 70h-9.5l-24.7-50.6-22.6 46.2h37.5l-.8-1.8h-33.8l19.6-40.1 22.7 46.4h-68.4l45.8-93.6 45.8 93.6h-7.5zm-95.1 9.9L175.3 156h6.1l19.5-39.9h-6.1z"/></svg>