<?xml version="1.0" encoding="UTF-8"?><!DOCTYPE svg PUBLIC "-//W3C//DTD SVG 1.1//EN" "http://www.w3.org/Graphics/SVG/1.1/DTD/svg11.dtd"><svg xmlns="http://www.w3.org/2000/svg"><symbol id="icon-fb" viewBox="0 0 11.2 11.3"><path fill="#4C5794" d="M11.2 5.7c0 3.1-2.5 5.6-5.6 5.6S0 8.8 0 5.7C0 2.6 2.5.1 5.6.1s5.6 2.5 5.6 5.6"/><path fill="#FFF" d="M7 5.9H6v3.7H4.5V5.9h-.7V4.6h.7v-.8c0-.6.3-1.5 1.5-1.5h1.1v1.3h-.8c-.1-.1-.3 0-.3.3v.8h1.1L7 5.9z"/></symbol><symbol id="icon-phone" viewBox="0 0 44.7 44.7"><style>.st0{fill:#fff}</style><path d="M42.3 31.1c-3 0-6-.5-9-1.5-.7-.2-1.7 0-2.5.5l-5.5 5.5c-7-3.5-12.7-9.5-16.4-16.4l5.5-5.5c.7-.7 1-1.7.5-2.5-.8-2.7-1.3-5.7-1.3-8.7 0-1.5-1-2.5-2.5-2.5H2.5C1 0 0 1 0 2.5c0 23.4 18.9 42.2 42.3 42.2 1.5 0 2.5-1 2.5-2.5v-8.7c-.1-1.4-1.1-2.4-2.5-2.4" class="st0"/></symbol><symbol id="icon-vk" viewBox="0 0 11 11.3"><path fill="#5F749D" d="M11 5.6c0 3-2.5 5.5-5.5 5.5S0 8.6 0 5.6 2.5.1 5.5.1 11 2.6 11 5.6"/><path fill="#FFF" d="M5.3 8h.4s.1 0 .2-.1c.1 0 .1-.1.1-.1s0-.6.3-.7c.3-.1.6.6 1 .8.2.2.4.1.4.1h1s.5 0 .3-.4c0 0-.1-.3-.7-.8-.7-.6-.6-.5.1-1.5.4-.6.6-.9.6-1.1-.1-.1-.4-.1-.4-.1H7.5h-.1c-.1 0-.1.1-.1.1s-.2.5-.4.9c-.5.8-.7.9-.8.8-.2-.1-.1-.5-.1-.7 0-.8.1-1.1-.3-1.2-.1 0-.2 0-.5-.1-.4 0-.7 0-.9.1-.1.1-.2.2-.1.2s.2 0 .3.2c.1.2.1.5.1.5s.1.9-.1 1c-.2.1-.4-.1-.8-.8-.3-.4-.4-.8-.4-.8s0-.1-.1-.1c-.1-.1-.2-.1-.2-.1H2s-.2 0-.2.1v.2s.8 1.9 1.7 2.8c.8.9 1.8.8 1.8.8"/></symbol><symbol id="icon-yt" viewBox="0 0 11.1 11.1"><path fill="#C40009" d="M11.1 5.5c0 3.1-2.5 5.5-5.5 5.5C2.5 11.1 0 8.6 0 5.5 0 2.5 2.5 0 5.5 0c3.1 0 5.6 2.5 5.6 5.5"/><path fill="#FFF" d="M8.1 6.8c0-.2-.1-.3-.2-.3s-.2.1-.2.3V7h.4v-.2zm-1.7-.4c-.1 0-.1 0-.2.1v1.4c0 .1.1.1.2.1s.2-.1.2-.3v-1c-.1-.2-.1-.3-.2-.3M3.6 2c.1.4.2.7.3 1v1.2h.5V2.9l.5-1.8h-.4l-.3 1.2-.4-1.2h-.4l.1.4c0 .1.1.2.1.5m3.2 2.2c.1 0 .3-.1.5-.3v.2h.4V1.9h-.5v1.7c-.1.2-.1.2-.2.2s-.1 0-.1-.1V1.9h-.4V4c.1.1.1.2.3.2m2.1 1.1c0-.2-.1-.3-.3-.4-.1-.2-.3-.2-.5-.2-.5-.1-1.4-.1-2.5-.1s-1.9 0-2.5.1c-.2 0-.3.1-.5.2-.1.1-.2.2-.2.4-.1.4-.1.9-.1 1.6 0 .7 0 1.2.1 1.6 0 .2.1.3.3.4.1.1.2.2.4.2.6.1 1.4.1 2.5.1s2 0 2.5-.1c.2 0 .3-.1.5-.2.1-.1.2-.3.3-.4 0-.4.1-.9.1-1.6 0-.7-.1-1.3-.1-1.6m-4.7.5h-.5v2.6h-.4V5.8h-.5v-.5h1.4v.5zm1.2 2.5H5v-.2c-.2.2-.3.3-.5.3-.1 0-.2-.1-.3-.2V6.1h.4v1.8l.1.1c.1 0 .2-.1.3-.2V6.1h.4v2.2zm1.5-.6v.4c0 .2-.2.3-.3.3-.1 0-.3-.1-.4-.2v.2h-.4v-3h.4v1c.1-.2.3-.2.4-.2.2 0 .3.1.3.3v1.2zm1.6-.1v.3c0 .1 0 .2-.1.2-.1.2-.3.3-.5.3s-.4-.1-.5-.2c-.1-.2-.1-.3-.1-.6v-.8c0-.2 0-.4.1-.5.1-.2.3-.2.5-.2s.4.1.5.2c.1.1.1.3.1.5v.5h-.8v.4c0 .2 0 .3.2.3.1 0 .1 0 .2-.2v-.2h.4zm-3-3.4c.2 0 .4-.1.5-.2.1-.1.1-.3.1-.5v-.9c0-.2 0-.4-.1-.5-.1-.1-.3-.2-.5-.2s-.3.1-.4.2c-.1.1-.2.3-.2.5v.8c0 .2 0 .4.1.5.2.2.3.3.5.3m-.2-1.6c0-.2.1-.3.2-.3s.2.1.2.3v.9c0 .2-.1.3-.2.3s-.2-.1-.2-.3v-.9z"/></symbol><symbol id="logo" viewBox="0 0 509.1 280.7"><style>.st0{fill:#fff}</style><path d="M16.2 193.6l8 22.3h-16l8-22.3zm-3-3L0 226.8h4.4l2.9-7.5h18.3l2.7 7.5h4.3l-13.5-36.3h-5.9zM65.4 226.8h-4v-32.6H43.8v22c0 3.6-.5 6.2-1.6 8-1 1.7-2.8 2.6-5.3 2.6h-2.6v-3.6h1c1.1 0 2-.2 2.6-.5.6-.3 1.1-.9 1.4-1.9.3-.9.4-2.3.4-4.2v-26h25.6v36.2zM76.3 206.5h18.4v3.6H76.3v13.1h19.2v3.6H72.3v-36.2h23.3v3.6H76.3zM105.3 190.6v15.8h3.6l14.8-15.8h5.4l-16.7 17.5 18.6 18.7h-5.5L108.9 210h-3.6v16.8h-4v-36.2zM158.5 214.7h3.9c0 3.2-.4 5.7-1.2 7.5-.8 1.8-2.3 3.1-4.3 3.8-2.1.8-5 1.2-8.8 1.2-2.9 0-5.2-.3-7-.8-1.8-.5-3.2-1.4-4.3-2.7-1.1-1.3-1.9-3.1-2.4-5.5s-.7-5.5-.7-9.4c0-3.9.2-7 .7-9.4.5-2.4 1.3-4.3 2.4-5.6 1.1-1.3 2.6-2.3 4.4-2.8 1.8-.5 4.1-.8 7-.8 2.9 0 5.2.2 7 .7 1.8.5 3.2 1.2 4.1 2.1 1 1 1.6 2.2 2 3.6.4 1.4.7 3.3.8 5.5h-3.9c-.3-2.4-.6-4.1-1.1-5.2-.5-1.1-1.4-1.9-2.7-2.4s-3.4-.7-6.2-.7c-2.1 0-3.9.2-5.2.6-1.3.4-2.3 1.2-3.1 2.2-.8 1.1-1.3 2.6-1.6 4.5-.3 1.9-.5 4.5-.5 7.7s.2 5.8.5 7.7c.3 1.9.9 3.4 1.6 4.4.8 1.1 1.8 1.8 3.1 2.2 1.3.4 3 .6 5.2.6s4-.1 5.3-.4c1.3-.3 2.4-.7 3.1-1.4.7-.7 1.3-1.5 1.6-2.7.2-1.1.3-2.6.3-4.5M164.9 226.8l13.2-36.3h5.9l13.5 36.3h-4.3l-2.7-7.5h-18.3l-2.9 7.5h-4.4zm24.3-10.9l-8-22.3-8 22.3h16zM206 206.6h21.2v-16h4v36.2h-4v-16.7H206v16.7h-4v-36.2h4zM238.5 223.3c.9-1.4 1.6-2.8 2.2-4.2.5-1.4.9-3 1.2-4.6.2-1.6.3-3.3.3-5.2v-18.7h24.6v32.7h2.6v11.9h-3.7v-8.3H240v8.3h-3.7v-11.9h2.2zm24.4-29.1h-16.7v14.5c0 1.9-.1 3.5-.2 4.9-.1 1.4-.3 2.6-.5 3.7s-.6 2.1-1 3.1-.9 1.9-1.4 2.9h19.7v-29.1zM278.2 212.7v14.2h-4v-36.3h17.3c2.2 0 4 .4 5.4 1.1 1.4.7 2.5 1.9 3.2 3.4.7 1.5 1.1 3.5 1.1 5.9 0 2.9-.4 5.2-1.2 6.9-.8 1.7-2.1 2.9-3.8 3.6-1.8.7-4.1 1.1-7.1 1.1h-10.9zm0-3.6h9.6c2.4 0 4.2-.2 5.4-.5 1.3-.3 2.2-1 2.8-2.1.6-1 .9-2.6.9-4.8 0-2.8-.4-4.8-1.3-5.9-.9-1.1-2.5-1.7-4.8-1.7h-12.7v15zM305.8 199.2c.5-2.4 1.2-4.2 2.4-5.5 1.1-1.3 2.6-2.2 4.5-2.7s4.5-.8 7.7-.8 5.7.3 7.6.8c1.9.5 3.4 1.4 4.5 2.7 1.1 1.3 1.9 3.1 2.3 5.5s.7 5.6.7 9.5c0 4-.2 7.1-.7 9.5-.5 2.4-1.2 4.2-2.3 5.5-1.1 1.3-2.6 2.2-4.5 2.7s-4.5.8-7.7.8-5.7-.3-7.6-.8c-1.9-.5-3.4-1.4-4.5-2.7-1.1-1.3-1.9-3.1-2.4-5.5s-.7-5.5-.7-9.5.2-7.1.7-9.5m3.8 17.5c.3 1.9.8 3.3 1.5 4.3s1.8 1.7 3.3 2.1c1.4.4 3.4.6 6 .6s4.6-.2 6-.6c1.4-.4 2.5-1.1 3.2-2.1.7-1 1.2-2.5 1.5-4.3.3-1.8.4-4.5.4-8s-.1-6.2-.4-8c-.2-1.9-.7-3.3-1.5-4.3-.7-1-1.8-1.7-3.2-2.1-1.4-.4-3.4-.6-6.1-.6-2.6 0-4.7.2-6.1.6-1.4.4-2.5 1.1-3.2 2.1-.7 1-1.2 2.5-1.5 4.3-.2 1.9-.4 4.5-.4 8 .1 3.5.2 6.1.5 8M359.4 226.8h-18.5v-36.3h17.5c3.2 0 5.5.7 7 2.1 1.5 1.4 2.2 3.7 2.2 6.9 0 1.5-.1 2.8-.3 3.8-.2 1-.6 1.9-1.3 2.6-.7.8-1.6 1.4-3 1.8 1.6.4 2.7 1 3.6 1.7.8.7 1.4 1.6 1.6 2.7.3 1.1.4 2.5.4 4.2 0 3.4-.7 6-2.1 7.8-1.4 1.9-3.8 2.7-7.1 2.7m-14.5-32.6v12.2h11.5c1.8 0 3.2-.2 4.2-.6 1-.4 1.7-1 2.2-2 .4-.9.7-2.3.7-4 0-2.2-.4-3.7-1.2-4.5-.8-.8-2.3-1.2-4.4-1.2h-13zm0 15.7v13.3h11.2c1.7 0 3.1-.1 4.1-.2 1-.1 1.8-.4 2.5-.9.7-.4 1.1-1.1 1.4-2 .3-.9.4-2 .4-3.5 0-2-.2-3.4-.6-4.4-.4-.9-1-1.6-2-1.9-.9-.3-2.3-.5-4.2-.5h-12.8zM397.9 214.7h3.9c0 3.2-.4 5.7-1.2 7.5-.8 1.8-2.3 3.1-4.3 3.8-2.1.8-5 1.2-8.8 1.2-2.9 0-5.2-.3-7-.8-1.8-.5-3.2-1.4-4.3-2.7-1.1-1.3-1.9-3.1-2.4-5.5s-.7-5.5-.7-9.4c0-3.9.2-7 .7-9.4.5-2.4 1.3-4.3 2.4-5.6 1.1-1.3 2.6-2.3 4.4-2.8 1.8-.5 4.1-.8 7-.8 2.9 0 5.2.2 7 .7 1.8.5 3.2 1.2 4.1 2.1 1 1 1.6 2.2 2 3.6.4 1.4.7 3.3.8 5.5h-3.9c-.3-2.4-.6-4.1-1.1-5.2-.5-1.1-1.4-1.9-2.7-2.4-1.3-.5-3.4-.7-6.2-.7-2.1 0-3.9.2-5.2.6-1.3.4-2.3 1.2-3.1 2.2-.8 1.1-1.3 2.6-1.6 4.5-.3 1.9-.5 4.5-.5 7.7s.2 5.8.5 7.7c.3 1.9.9 3.4 1.6 4.4.8 1.1 1.8 1.8 3.1 2.2 1.3.4 3 .6 5.2.6s4-.1 5.3-.4c1.3-.3 2.4-.7 3.1-1.4.7-.7 1.3-1.5 1.6-2.7.1-1.1.3-2.6.3-4.5M410.6 190.6v15.8h3.6l14.8-15.8h5.4l-16.7 17.5 18.6 18.7h-5.5L414.2 210h-3.6v16.8h-4v-36.2zM440.2 190.6h4v33.5l20.6-33.5h6.5v36.2h-4v-33.1l-20.7 33.1h-6.4zM478.1 190.6h4V224l20.6-33.4h6.4v36.3h-4v-33.2l-20.7 33.2H478v-36.3zm19.6-6.5c0 .9-.2 1.5-.6 1.9-.4.4-.9.6-1.5.7-.6.1-1.5.1-2.6.1s-2 0-2.6-.1c-.6-.1-1.1-.3-1.5-.8-.4-.4-.6-1.1-.6-1.9h-2.8c0 1.5.2 2.6.7 3.4.5.8 1.3 1.3 2.3 1.7 1.1.3 2.5.5 4.3.5 2 0 3.5-.2 4.5-.5 1.1-.3 1.8-.8 2.3-1.6.5-.8.7-1.9.7-3.4h-2.6zM138.6 280.5h-1.7l7.6-8.4-7.1-7.9h1.7l7.1 7.9-7.6 8.4zm8.1-16.3h1.4v16.3h-1.4v-16.3zm1.9 7.9l7.1-7.9h1.7l-7.1 7.9 7.6 8.4h-1.7l-7.6-8.4zM161.9 280.5v-16.3h1.4v14l9.4-14h1.3v16.3h-1.4v-13.9l-9.4 13.9zM192 280.5h-1.4v-15.1h-7.7v1c0 13.1-.8 14.3-4.8 14.3h-.2v-1.2h.2c2.5 0 3.4-.6 3.4-13.1v-2.2H192v16.3zM203.7 280.7c-3.5 0-6.1-1.8-6.1-4.3v-8c0-2.5 2.5-4.3 6.1-4.3 3.5 0 6 1.8 6 4.3v8c0 2.5-2.5 4.3-6 4.3m4.6-12.4c0-1.8-1.9-3.1-4.6-3.1s-4.6 1.3-4.6 3.1v8.1c0 1.8 1.9 3.1 4.6 3.1s4.6-1.3 4.6-3.1v-8.1zM215.3 280.5v-16.3h1.4v13.9l9.4-13.9h1.3v16.3H226v-13.9l-9.4 13.9h-1.3zm9.8-20.5v.4c0 1.3-1.5 2.3-3.5 2.3-2.1 0-3.5-1-3.5-2.3v-.4h1.1v.5c0 .7 1 1.3 2.4 1.3s2.4-.6 2.4-1.3v-.5h1.1zM240.2 264.2h1.4v16.3h-1.4v-16.3zm2.1 7.9l7.4-7.9h1.7l-7.4 7.9 7.9 8.4h-1.7l-7.9-8.4zM261.3 280.7c-3.5 0-6.1-1.8-6.1-4.3v-8c0-2.5 2.5-4.3 6.1-4.3 3.5 0 6 1.8 6 4.3v8c.1 2.5-2.4 4.3-6 4.3m4.7-12.4c0-1.8-1.9-3.1-4.6-3.1-2.7 0-4.6 1.3-4.6 3.1v8.1c0 1.8 1.9 3.1 4.6 3.1 2.7 0 4.6-1.3 4.6-3.1v-8.1zM273 280.5v-16.3h1.2l6.1 11.2 6.2-11.2h1.3v16.3h-1.4v-13.4l-5.6 10.3h-.9l-5.5-10.3v13.4zM293.6 280.5v-16.3h12.1v16.3h-1.4v-15.1H295v15.1zM323.7 280.5h-1.4v-15.1h-7.7v1c0 13.1-.8 14.3-4.8 14.3h-.2v-1.2h.2c2.5 0 3.4-.6 3.4-13.1v-2.2h10.5v16.3zM339.6 280.5h-10v-16.3h10v1.2H331v6.4h7.8v1.2H331v6.3h8.6zM344.4 264.2h1.4v16.3h-1.4v-16.3zm2.1 7.9l7.4-7.9h1.7l-7.4 7.9 7.9 8.4h-1.7l-7.9-8.4zM371.6 275.6v.7c0 2.5-2.5 4.3-6 4.3s-6.1-1.8-6.1-4.3v-8c0-2.5 2.5-4.3 6.1-4.3 3.5 0 6 1.8 6 4.3v.8h-1.4v-.8c0-1.8-1.9-3.1-4.6-3.1s-4.6 1.3-4.6 3.1v8.1c0 1.8 1.9 3.1 4.6 3.1s4.6-1.3 4.6-3.1v-.8h1.4zM244.2 250.1H3.3c-.8 0-1.4-.6-1.4-1.4 0-.8.6-1.4 1.4-1.4h240.8c.8 0 1.4.6 1.4 1.4.1.7-.5 1.4-1.3 1.4M507.6 250.1H266.8c-.8 0-1.4-.6-1.4-1.4 0-.8.6-1.4 1.4-1.4h240.8c.8 0 1.4.6 1.4 1.4.1.7-.6 1.4-1.4 1.4" class="st0"/><path d="M251 243.8h9.7v9.7H251z" class="st0" transform="rotate(-45.001 255.834 248.665)"/><path d="M202.5 156h2l15.5-31.7h-2L202.5 156zm80.5-31.8l15.5 31.7h2L285 124.2h-2zm11.6 0l15.5 31.7h4.1l-15.5-31.7h-4.1zM251.5 0l-54.6 111.7h91.5l2.2 4.5-82.2-.1-19.5 39.9h4.1l17.7-36.1h81.8v.1h4.1l-4-8.2h7.5l21.6 44.3h6.1L251.5 0zm38.4 106.2l-38.3-78.4-36.2 74h4.1l32.1-65.6 34.2 70h-9.5l-24.7-50.6-22.6 46.2h37.5l-.8-1.8h-33.8l19.6-40.1 22.7 46.4h-68.4l45.8-93.6 45.8 93.6h-7.5zm-95.1 9.9L175.3 156h6.1l19.5-39.9h-6.1z" class="st0"/></symbol></svg>